<?xml version="1.0" encoding="UTF-8"?>
<svg xmlns="http://www.w3.org/2000/svg" xmlns:xlink="http://www.w3.org/1999/xlink" width="499.042pt" height="179.444pt" viewBox="0 0 499.042 179.444">
<defs>
<g>
<g id="glyph-0-0">
<path d="M 3.578125 -2.046875 C 3.765625 -2.046875 3.8125 -2.046875 3.8125 -2.234375 C 3.8125 -3.15625 3.3125 -4 2.171875 -4 C 1.09375 -4 0.265625 -3.078125 0.265625 -1.96875 C 0.265625 -0.796875 1.203125 0.09375 2.28125 0.09375 C 3.375 0.09375 3.8125 -0.859375 3.8125 -1.0625 C 3.8125 -1.125 3.765625 -1.1875 3.6875 -1.1875 C 3.609375 -1.1875 3.578125 -1.125 3.5625 -1.078125 C 3.265625 -0.171875 2.46875 -0.15625 2.328125 -0.15625 C 1.90625 -0.15625 1.53125 -0.390625 1.328125 -0.703125 C 1.03125 -1.140625 1.03125 -1.671875 1.03125 -2.046875 Z M 1.03125 -2.265625 C 1.125 -3.640625 1.921875 -3.78125 2.171875 -3.78125 C 2.65625 -3.78125 3.203125 -3.40625 3.203125 -2.265625 Z M 1.03125 -2.265625 "/>
</g>
<g id="glyph-0-1">
<path d="M 2.71875 -2.015625 C 2.65625 -2.09375 2.65625 -2.09375 2.65625 -2.109375 C 2.65625 -2.125 3.359375 -2.96875 3.4375 -3.046875 C 3.703125 -3.359375 4.015625 -3.5625 4.5625 -3.578125 L 4.5625 -3.859375 C 4.296875 -3.828125 4.0625 -3.828125 3.796875 -3.828125 C 3.453125 -3.828125 3.296875 -3.828125 2.9375 -3.859375 L 2.9375 -3.578125 C 3.078125 -3.5625 3.1875 -3.484375 3.1875 -3.3125 C 3.1875 -3.15625 3.109375 -3.0625 3.0625 -3.015625 L 2.5 -2.3125 L 1.796875 -3.1875 C 1.734375 -3.265625 1.71875 -3.28125 1.71875 -3.359375 C 1.71875 -3.453125 1.8125 -3.5625 2.015625 -3.578125 L 2.015625 -3.859375 C 1.6875 -3.828125 1.453125 -3.828125 1.046875 -3.828125 C 1.03125 -3.828125 0.515625 -3.828125 0.171875 -3.859375 L 0.171875 -3.578125 C 0.78125 -3.578125 0.796875 -3.5625 1.21875 -3.03125 L 2.140625 -1.875 C 1.9375 -1.640625 1.46875 -1.046875 1.265625 -0.828125 C 0.828125 -0.296875 0.3125 -0.28125 0.125 -0.28125 L 0.125 0 C 0.390625 -0.03125 0.625 -0.03125 0.890625 -0.03125 C 1.171875 -0.03125 1.453125 -0.015625 1.75 0 L 1.75 -0.28125 C 1.515625 -0.296875 1.5 -0.453125 1.5 -0.546875 C 1.5 -0.578125 1.5 -0.703125 1.625 -0.859375 C 1.84375 -1.140625 2.078125 -1.40625 2.296875 -1.671875 L 3 -0.765625 C 3.171875 -0.578125 3.171875 -0.546875 3.171875 -0.5 C 3.171875 -0.40625 3.078125 -0.28125 2.875 -0.28125 L 2.875 0 C 3.25 -0.015625 3.453125 -0.03125 3.84375 -0.03125 C 3.859375 -0.03125 4.375 -0.03125 4.71875 0 L 4.71875 -0.28125 C 4.359375 -0.28125 4.09375 -0.28125 3.890625 -0.53125 Z M 2.71875 -2.015625 "/>
</g>
<g id="glyph-0-2">
<path d="M 1.625 -3 C 1.921875 -3.515625 2.40625 -3.703125 2.78125 -3.703125 C 3.484375 -3.703125 4.015625 -2.890625 4.015625 -1.9375 C 4.015625 -0.90625 3.421875 -0.125 2.6875 -0.125 C 2.28125 -0.125 1.953125 -0.359375 1.734375 -0.671875 C 1.625 -0.84375 1.625 -0.859375 1.625 -1.03125 Z M 1.625 -0.421875 C 1.84375 -0.203125 2.15625 0.09375 2.75 0.09375 C 3.8125 0.09375 4.796875 -0.765625 4.796875 -1.9375 C 4.796875 -3.0625 3.921875 -3.953125 2.859375 -3.953125 C 2.375 -3.953125 1.9375 -3.75 1.59375 -3.390625 L 1.59375 -3.953125 L 0.265625 -3.859375 L 0.265625 -3.578125 C 0.90625 -3.578125 0.953125 -3.515625 0.953125 -3.140625 L 0.953125 1.046875 C 0.953125 1.453125 0.859375 1.453125 0.265625 1.453125 L 0.265625 1.734375 C 0.6875 1.71875 0.859375 1.703125 1.28125 1.703125 C 1.71875 1.703125 1.828125 1.71875 2.3125 1.734375 L 2.3125 1.453125 C 1.71875 1.453125 1.625 1.453125 1.625 1.046875 Z M 1.625 -0.421875 "/>
</g>
<g id="glyph-0-3">
<path d="M 1.59375 -2.046875 C 1.59375 -2.40625 1.6875 -3.734375 2.703125 -3.734375 L 2.703125 -3.71875 C 2.6875 -3.703125 2.546875 -3.609375 2.546875 -3.390625 C 2.546875 -3.140625 2.734375 -3 2.9375 -3 C 3.125 -3 3.328125 -3.125 3.328125 -3.390625 C 3.328125 -3.6875 3.0625 -3.953125 2.65625 -3.953125 C 2.125 -3.953125 1.75 -3.578125 1.546875 -3.015625 L 1.53125 -3.015625 L 1.53125 -3.953125 L 0.265625 -3.859375 L 0.265625 -3.578125 C 0.875 -3.578125 0.953125 -3.515625 0.953125 -3.078125 L 0.953125 -0.6875 C 0.953125 -0.28125 0.859375 -0.28125 0.265625 -0.28125 L 0.265625 0 C 0.734375 -0.015625 0.859375 -0.03125 1.3125 -0.03125 C 1.671875 -0.03125 1.890625 -0.015625 2.453125 0 L 2.453125 -0.28125 L 2.265625 -0.28125 C 1.625 -0.28125 1.59375 -0.375 1.59375 -0.703125 Z M 1.59375 -2.046875 "/>
</g>
<g id="glyph-0-4">
<path d="M 2.90625 -3.578125 L 2.90625 -3.859375 L 1.609375 -3.859375 L 1.609375 -5.5 L 1.359375 -5.5 C 1.34375 -4.75 1.03125 -3.828125 0.171875 -3.796875 L 0.171875 -3.578125 L 0.953125 -3.578125 L 0.953125 -1.109375 C 0.953125 -0.109375 1.671875 0.09375 2.140625 0.09375 C 2.75 0.09375 3.0625 -0.46875 3.0625 -1.109375 L 3.0625 -1.625 L 2.8125 -1.625 L 2.8125 -1.140625 C 2.8125 -0.46875 2.53125 -0.15625 2.203125 -0.15625 C 1.609375 -0.15625 1.609375 -0.9375 1.609375 -1.09375 L 1.609375 -3.578125 Z M 2.90625 -3.578125 "/>
</g>
<g id="glyph-0-5">
<path d="M 3.484375 -1.078125 C 3.484375 -0.90625 3.484375 -0.890625 3.34375 -0.703125 C 3.0625 -0.296875 2.65625 -0.125 2.296875 -0.125 C 1.90625 -0.125 1.5625 -0.34375 1.328125 -0.71875 C 1.09375 -1.09375 1.078125 -1.625 1.078125 -1.90625 C 1.078125 -2.328125 1.125 -2.8125 1.359375 -3.15625 C 1.5625 -3.453125 1.921875 -3.734375 2.390625 -3.734375 C 2.765625 -3.734375 3.125 -3.546875 3.375 -3.203125 C 3.484375 -3.0625 3.484375 -3.046875 3.484375 -2.875 Z M 3.5 -3.421875 C 3.453125 -3.484375 3.0625 -3.953125 2.359375 -3.953125 C 1.265625 -3.953125 0.296875 -3.078125 0.296875 -1.921875 C 0.296875 -0.796875 1.203125 0.09375 2.265625 0.09375 C 2.90625 0.09375 3.3125 -0.28125 3.484375 -0.46875 L 3.484375 0.09375 L 4.828125 0 L 4.828125 -0.28125 C 4.21875 -0.28125 4.140625 -0.34375 4.140625 -0.78125 L 4.140625 -6.203125 L 2.8125 -6.109375 L 2.8125 -5.828125 C 3.421875 -5.828125 3.5 -5.765625 3.5 -5.328125 Z M 3.5 -3.421875 "/>
</g>
<g id="glyph-0-6">
<path d="M 1.65625 -2.3125 C 1.65625 -3.28125 2.359375 -3.734375 2.890625 -3.734375 C 3.390625 -3.734375 3.546875 -3.375 3.546875 -2.75 L 3.546875 -0.6875 C 3.546875 -0.28125 3.453125 -0.28125 2.859375 -0.28125 L 2.859375 0 C 3.28125 -0.015625 3.453125 -0.03125 3.875 -0.03125 C 4.3125 -0.03125 4.421875 -0.015625 4.890625 0 L 4.890625 -0.28125 C 4.3125 -0.28125 4.203125 -0.28125 4.203125 -0.6875 L 4.203125 -2.3125 C 4.203125 -3.28125 4.90625 -3.734375 5.4375 -3.734375 C 5.9375 -3.734375 6.09375 -3.375 6.09375 -2.75 L 6.09375 -0.6875 C 6.09375 -0.28125 6 -0.28125 5.40625 -0.28125 L 5.40625 0 C 5.828125 -0.015625 6 -0.03125 6.421875 -0.03125 C 6.859375 -0.03125 6.96875 -0.015625 7.4375 0 L 7.4375 -0.28125 C 6.984375 -0.28125 6.765625 -0.28125 6.75 -0.546875 L 6.75 -2.265625 C 6.75 -3.046875 6.75 -3.296875 6.46875 -3.625 C 6.28125 -3.84375 5.921875 -3.953125 5.5 -3.953125 C 4.859375 -3.953125 4.421875 -3.578125 4.171875 -3.09375 C 4.0625 -3.625 3.703125 -3.953125 2.953125 -3.953125 C 2.25 -3.953125 1.8125 -3.484375 1.625 -3.078125 L 1.609375 -3.078125 L 1.609375 -3.953125 L 0.3125 -3.859375 L 0.3125 -3.578125 C 0.921875 -3.578125 1 -3.515625 1 -3.078125 L 1 -0.6875 C 1 -0.28125 0.90625 -0.28125 0.3125 -0.28125 L 0.3125 0 C 0.734375 -0.015625 0.90625 -0.03125 1.328125 -0.03125 C 1.765625 -0.03125 1.875 -0.015625 2.34375 0 L 2.34375 -0.28125 C 1.765625 -0.28125 1.65625 -0.28125 1.65625 -0.6875 Z M 1.65625 -2.3125 "/>
</g>
<g id="glyph-0-7">
<path d="M 4.328125 -1.90625 C 4.328125 -3.078125 3.390625 -4 2.296875 -4 C 1.15625 -4 0.265625 -3.046875 0.265625 -1.90625 C 0.265625 -0.78125 1.1875 0.09375 2.28125 0.09375 C 3.421875 0.09375 4.328125 -0.796875 4.328125 -1.90625 Z M 2.296875 -0.15625 C 1.84375 -0.15625 1.46875 -0.375 1.265625 -0.71875 C 1.03125 -1.09375 1.03125 -1.578125 1.03125 -1.984375 C 1.03125 -2.3125 1.03125 -2.828125 1.25 -3.1875 C 1.515625 -3.640625 1.96875 -3.78125 2.28125 -3.78125 C 2.796875 -3.78125 3.15625 -3.5 3.34375 -3.1875 C 3.546875 -2.8125 3.5625 -2.359375 3.5625 -1.984375 C 3.5625 -1.65625 3.5625 -1.140625 3.328125 -0.734375 C 3.078125 -0.328125 2.671875 -0.15625 2.296875 -0.15625 Z M 2.296875 -0.15625 "/>
</g>
<g id="glyph-0-8">
<path d="M 3.078125 -3.765625 C 3.078125 -3.921875 3.078125 -4 2.96875 -4 C 2.921875 -4 2.90625 -4 2.78125 -3.890625 C 2.765625 -3.875 2.6875 -3.796875 2.640625 -3.75 C 2.359375 -3.953125 2.078125 -4 1.78125 -4 C 0.59375 -4 0.296875 -3.359375 0.296875 -2.890625 C 0.296875 -2.609375 0.421875 -2.375 0.640625 -2.1875 C 0.9375 -1.90625 1.28125 -1.84375 1.734375 -1.765625 C 2.1875 -1.671875 2.34375 -1.640625 2.53125 -1.5 C 2.625 -1.421875 2.84375 -1.25 2.84375 -0.90625 C 2.84375 -0.125 1.953125 -0.125 1.828125 -0.125 C 0.90625 -0.125 0.671875 -0.890625 0.578125 -1.375 C 0.546875 -1.453125 0.53125 -1.515625 0.421875 -1.515625 C 0.296875 -1.515625 0.296875 -1.4375 0.296875 -1.28125 L 0.296875 -0.140625 C 0.296875 0.015625 0.296875 0.09375 0.40625 0.09375 C 0.46875 0.09375 0.46875 0.09375 0.640625 -0.078125 C 0.671875 -0.140625 0.765625 -0.25 0.8125 -0.296875 C 1.1875 0.078125 1.59375 0.09375 1.828125 0.09375 C 2.921875 0.09375 3.3125 -0.546875 3.3125 -1.140625 C 3.3125 -1.546875 3.125 -1.78125 2.9375 -2 C 2.625 -2.28125 2.3125 -2.34375 1.640625 -2.46875 C 1.40625 -2.515625 0.765625 -2.640625 0.765625 -3.140625 C 0.765625 -3.4375 0.96875 -3.8125 1.78125 -3.8125 C 2.75 -3.8125 2.8125 -3.0625 2.828125 -2.84375 C 2.828125 -2.734375 2.828125 -2.6875 2.953125 -2.6875 C 3.078125 -2.6875 3.078125 -2.75 3.078125 -2.90625 Z M 3.078125 -3.765625 "/>
</g>
<g id="glyph-0-9">
<path d="M 3.0625 -0.640625 C 3.09375 -0.265625 3.359375 0.046875 3.75 0.046875 C 3.96875 0.046875 4.53125 -0.078125 4.53125 -0.796875 L 4.53125 -1.296875 L 4.28125 -1.296875 L 4.28125 -0.796875 C 4.28125 -0.703125 4.28125 -0.265625 3.953125 -0.265625 C 3.640625 -0.265625 3.640625 -0.6875 3.640625 -0.828125 L 3.640625 -2.390625 C 3.640625 -2.90625 3.640625 -3.203125 3.234375 -3.578125 C 2.90625 -3.875 2.46875 -4 2.03125 -4 C 1.28125 -4 0.65625 -3.625 0.65625 -3.0625 C 0.65625 -2.78125 0.84375 -2.625 1.078125 -2.625 C 1.3125 -2.625 1.484375 -2.8125 1.484375 -3.03125 C 1.484375 -3.421875 1.09375 -3.46875 1.078125 -3.46875 C 1.328125 -3.703125 1.75 -3.78125 2.015625 -3.78125 C 2.46875 -3.78125 2.96875 -3.4375 2.96875 -2.65625 L 2.96875 -2.359375 C 2.5 -2.34375 1.828125 -2.296875 1.21875 -2.015625 C 0.578125 -1.703125 0.390625 -1.234375 0.390625 -0.875 C 0.390625 -0.140625 1.25 0.09375 1.84375 0.09375 C 2.59375 0.09375 2.9375 -0.390625 3.0625 -0.640625 Z M 2.96875 -1.265625 C 2.96875 -0.390625 2.3125 -0.125 1.90625 -0.125 C 1.5 -0.125 1.09375 -0.421875 1.09375 -0.875 C 1.09375 -1.46875 1.609375 -2.09375 2.96875 -2.140625 Z M 2.96875 -1.265625 "/>
</g>
<g id="glyph-0-10">
<path d="M 3.546875 -1.5 C 3.546875 -0.703125 3.09375 -0.125 2.453125 -0.125 C 1.703125 -0.125 1.65625 -0.515625 1.65625 -0.984375 L 1.65625 -3.953125 L 0.3125 -3.859375 L 0.3125 -3.578125 C 1 -3.578125 1 -3.546875 1 -2.75 L 1 -1.40625 C 1 -0.828125 1 -0.453125 1.40625 -0.140625 C 1.671875 0.03125 2.03125 0.09375 2.390625 0.09375 C 2.859375 0.09375 3.296875 -0.109375 3.5625 -0.640625 L 3.5625 0.09375 L 4.890625 0 L 4.890625 -0.28125 C 4.28125 -0.28125 4.203125 -0.34375 4.203125 -0.78125 L 4.203125 -3.953125 L 2.84375 -3.859375 L 2.84375 -3.578125 C 3.453125 -3.578125 3.546875 -3.515625 3.546875 -3.078125 Z M 3.546875 -1.5 "/>
</g>
<g id="glyph-0-11">
<path d="M 1.65625 -2.3125 C 1.65625 -3.265625 2.328125 -3.734375 2.890625 -3.734375 C 3.421875 -3.734375 3.546875 -3.28125 3.546875 -2.75 L 3.546875 -0.6875 C 3.546875 -0.28125 3.4375 -0.28125 2.84375 -0.28125 L 2.84375 0 C 3.265625 -0.015625 3.4375 -0.03125 3.875 -0.03125 C 4.296875 -0.03125 4.421875 -0.015625 4.890625 0 L 4.890625 -0.28125 C 4.4375 -0.28125 4.203125 -0.28125 4.203125 -0.546875 L 4.203125 -2.265625 C 4.203125 -3.015625 4.203125 -3.265625 3.953125 -3.578125 C 3.75 -3.828125 3.40625 -3.953125 2.953125 -3.953125 C 2.125 -3.953125 1.75 -3.328125 1.625 -3.078125 L 1.609375 -3.078125 L 1.609375 -3.953125 L 0.3125 -3.859375 L 0.3125 -3.578125 C 0.921875 -3.578125 1 -3.515625 1 -3.078125 L 1 -0.6875 C 1 -0.28125 0.90625 -0.28125 0.3125 -0.28125 L 0.3125 0 C 0.734375 -0.015625 0.90625 -0.03125 1.328125 -0.03125 C 1.765625 -0.03125 1.875 -0.015625 2.34375 0 L 2.34375 -0.28125 C 1.765625 -0.28125 1.65625 -0.28125 1.65625 -0.6875 Z M 1.65625 -2.3125 "/>
</g>
<g id="glyph-0-12">
<path d="M 1.640625 -6.203125 L 0.328125 -6.109375 L 0.328125 -5.828125 C 0.921875 -5.828125 1.015625 -5.765625 1.015625 -5.328125 L 1.015625 -0.6875 C 1.015625 -0.28125 0.90625 -0.28125 0.328125 -0.28125 L 0.328125 0 C 0.734375 -0.015625 0.90625 -0.03125 1.328125 -0.03125 C 1.75 -0.03125 1.890625 -0.015625 2.328125 0 L 2.328125 -0.28125 C 1.75 -0.28125 1.640625 -0.28125 1.640625 -0.6875 Z M 1.640625 -6.203125 "/>
</g>
<g id="glyph-0-13">
<path d="M 3.25 -3.515625 C 3.0625 -3.484375 2.890625 -3.359375 2.890625 -3.09375 C 2.890625 -2.859375 3.0625 -2.6875 3.296875 -2.6875 C 3.53125 -2.6875 3.71875 -2.828125 3.71875 -3.109375 C 3.71875 -3.671875 3.09375 -4 2.3125 -4 C 1.15625 -4 0.296875 -3.046875 0.296875 -1.9375 C 0.296875 -0.78125 1.234375 0.09375 2.28125 0.09375 C 3.53125 0.09375 3.8125 -0.984375 3.8125 -1.0625 C 3.8125 -1.171875 3.71875 -1.171875 3.6875 -1.171875 C 3.59375 -1.171875 3.59375 -1.15625 3.546875 -1 C 3.328125 -0.390625 2.828125 -0.15625 2.375 -0.15625 C 1.8125 -0.15625 1.078125 -0.609375 1.078125 -1.9375 C 1.078125 -3.328125 1.78125 -3.75 2.328125 -3.75 C 2.4375 -3.75 2.921875 -3.734375 3.25 -3.515625 Z M 3.25 -3.515625 "/>
</g>
<g id="glyph-0-14">
<path d="M 1.640625 -3.953125 L 0.359375 -3.859375 L 0.359375 -3.578125 C 0.921875 -3.578125 1.015625 -3.515625 1.015625 -3.078125 L 1.015625 -0.6875 C 1.015625 -0.28125 0.90625 -0.28125 0.328125 -0.28125 L 0.328125 0 C 0.71875 -0.015625 0.90625 -0.03125 1.3125 -0.03125 C 1.453125 -0.03125 1.828125 -0.03125 2.265625 0 L 2.265625 -0.28125 C 1.6875 -0.28125 1.640625 -0.328125 1.640625 -0.671875 Z M 1.671875 -5.5 C 1.671875 -5.78125 1.453125 -5.984375 1.1875 -5.984375 C 0.90625 -5.984375 0.703125 -5.765625 0.703125 -5.5 C 0.703125 -5.25 0.90625 -5.015625 1.1875 -5.015625 C 1.453125 -5.015625 1.671875 -5.234375 1.671875 -5.5 Z M 1.671875 -5.5 "/>
</g>
<g id="glyph-0-15">
<path d="M 3.046875 2.125 C 3.046875 2.078125 3.015625 2.0625 2.96875 2 C 1.8125 0.9375 1.46875 -0.671875 1.46875 -2.234375 C 1.46875 -3.625 1.734375 -5.296875 3 -6.5 C 3.03125 -6.53125 3.046875 -6.5625 3.046875 -6.609375 C 3.046875 -6.671875 3 -6.703125 2.9375 -6.703125 C 2.828125 -6.703125 2.03125 -6.0625 1.546875 -5.078125 C 1.125 -4.234375 0.90625 -3.3125 0.90625 -2.25 C 0.90625 -1.59375 0.984375 -0.578125 1.46875 0.46875 C 2 1.578125 2.828125 2.21875 2.9375 2.21875 C 3 2.21875 3.046875 2.1875 3.046875 2.125 Z M 3.046875 2.125 "/>
</g>
<g id="glyph-0-16">
<path d="M 5.40625 -5.515625 C 5.125 -5.796875 4.609375 -6.296875 3.703125 -6.296875 C 1.96875 -6.296875 0.515625 -4.859375 0.515625 -3.0625 C 0.515625 -1.21875 2 0.203125 3.703125 0.203125 C 5.1875 0.203125 6.109375 -1.03125 6.109375 -2.078125 C 6.109375 -2.15625 6.109375 -2.25 5.984375 -2.25 C 5.875 -2.25 5.875 -2.1875 5.859375 -2.09375 C 5.796875 -0.734375 4.71875 -0.078125 3.796875 -0.078125 C 3.03125 -0.078125 1.421875 -0.546875 1.421875 -3.0625 C 1.421875 -5.546875 3.046875 -6.03125 3.796875 -6.03125 C 4.671875 -6.03125 5.609375 -5.359375 5.828125 -3.90625 C 5.84375 -3.796875 5.859375 -3.75 5.96875 -3.75 C 6.109375 -3.75 6.109375 -3.796875 6.109375 -3.984375 L 6.109375 -6.0625 C 6.109375 -6.21875 6.109375 -6.296875 6 -6.296875 C 5.9375 -6.296875 5.921875 -6.28125 5.859375 -6.1875 Z M 5.40625 -5.515625 "/>
</g>
<g id="glyph-0-17">
<path d="M 0.921875 -3.078125 C 0.921875 -2.921875 0.921875 -2.828125 1.046875 -2.828125 C 1.125 -2.828125 1.15625 -2.859375 1.203125 -2.9375 C 1.46875 -3.3125 1.90625 -3.53125 2.375 -3.53125 C 3.328125 -3.53125 3.328125 -2.15625 3.328125 -1.828125 C 3.328125 -1.5625 3.328125 -1 3.078125 -0.59375 C 2.828125 -0.21875 2.453125 -0.046875 2.109375 -0.046875 C 1.578125 -0.046875 0.984375 -0.390625 0.765625 -1.046875 C 0.78125 -1.046875 0.828125 -1.03125 0.890625 -1.03125 C 1.078125 -1.03125 1.328125 -1.140625 1.328125 -1.46875 C 1.328125 -1.75 1.140625 -1.90625 0.890625 -1.90625 C 0.703125 -1.90625 0.453125 -1.796875 0.453125 -1.4375 C 0.453125 -0.625 1.140625 0.203125 2.125 0.203125 C 3.203125 0.203125 4.125 -0.671875 4.125 -1.78125 C 4.125 -2.875 3.359375 -3.75 2.390625 -3.75 C 1.953125 -3.75 1.515625 -3.609375 1.203125 -3.28125 L 1.203125 -5.046875 C 1.46875 -4.96875 1.75 -4.921875 2.03125 -4.921875 C 3.125 -4.921875 3.765625 -5.71875 3.765625 -5.84375 C 3.765625 -5.921875 3.71875 -5.953125 3.671875 -5.953125 C 3.65625 -5.953125 3.640625 -5.953125 3.5625 -5.90625 C 3.140625 -5.734375 2.71875 -5.671875 2.34375 -5.671875 C 1.96875 -5.671875 1.5625 -5.734375 1.15625 -5.90625 C 1.0625 -5.953125 1.046875 -5.953125 1.03125 -5.953125 C 0.921875 -5.953125 0.921875 -5.859375 0.921875 -5.71875 Z M 0.921875 -3.078125 "/>
</g>
<g id="glyph-0-18">
<path d="M 2.71875 -5.71875 C 2.71875 -5.9375 2.703125 -5.953125 2.484375 -5.953125 C 1.9375 -5.375 1.109375 -5.375 0.828125 -5.375 L 0.828125 -5.109375 C 1 -5.109375 1.546875 -5.109375 2.03125 -5.328125 L 2.03125 -0.71875 C 2.03125 -0.390625 2 -0.28125 1.171875 -0.28125 L 0.890625 -0.28125 L 0.890625 0 C 1.203125 -0.03125 2 -0.03125 2.375 -0.03125 C 2.734375 -0.03125 3.546875 -0.03125 3.859375 0 L 3.859375 -0.28125 L 3.578125 -0.28125 C 2.75 -0.28125 2.71875 -0.390625 2.71875 -0.71875 Z M 2.71875 -5.71875 "/>
</g>
<g id="glyph-0-19">
<path d="M 2.65625 -2.25 C 2.65625 -2.96875 2.5625 -3.953125 2.09375 -4.953125 C 1.5625 -6.046875 0.734375 -6.703125 0.625 -6.703125 C 0.53125 -6.703125 0.515625 -6.625 0.515625 -6.609375 C 0.515625 -6.5625 0.53125 -6.53125 0.59375 -6.46875 C 1.125 -6 2.09375 -4.796875 2.09375 -2.25 C 2.09375 -0.96875 1.875 0.8125 0.578125 2.015625 C 0.546875 2.046875 0.515625 2.078125 0.515625 2.125 C 0.515625 2.15625 0.53125 2.21875 0.625 2.21875 C 0.734375 2.21875 1.53125 1.578125 2.015625 0.609375 C 2.453125 -0.25 2.65625 -1.171875 2.65625 -2.25 Z M 2.65625 -2.25 "/>
</g>
<g id="glyph-0-20">
<path d="M 1.609375 -3.171875 C 1.578125 -3.21875 1.5625 -3.28125 1.5625 -3.34375 C 1.5625 -3.578125 1.890625 -3.578125 2.0625 -3.578125 L 2.0625 -3.859375 C 1.671875 -3.828125 1.46875 -3.828125 1.078125 -3.828125 C 0.765625 -3.828125 0.5 -3.828125 0.171875 -3.859375 L 0.171875 -3.578125 C 0.59375 -3.578125 0.765625 -3.578125 0.90625 -3.25 L 2.203125 -0.078125 C 2.265625 0.078125 2.328125 0.09375 2.40625 0.09375 C 2.5 0.09375 2.5625 0.078125 2.625 -0.078125 L 3.84375 -3 C 4.03125 -3.453125 4.34375 -3.5625 4.65625 -3.578125 L 4.65625 -3.859375 C 4.390625 -3.828125 3.984375 -3.828125 3.96875 -3.828125 C 3.71875 -3.828125 3.4375 -3.828125 3.1875 -3.859375 L 3.1875 -3.578125 C 3.453125 -3.5625 3.609375 -3.421875 3.609375 -3.1875 C 3.609375 -3.09375 3.59375 -3.078125 3.5625 -2.984375 L 2.625 -0.734375 Z M 1.609375 -3.171875 "/>
</g>
<g id="glyph-0-21">
<path d="M 1.125 -1.59375 C 1.34375 -1.453125 1.625 -1.328125 2.03125 -1.328125 C 2.875 -1.328125 3.515625 -1.9375 3.515625 -2.640625 C 3.515625 -3.078125 3.265625 -3.375 3.15625 -3.5 C 3.515625 -3.828125 3.9375 -3.828125 4.046875 -3.828125 C 4 -3.796875 3.921875 -3.75 3.921875 -3.59375 C 3.921875 -3.5 3.984375 -3.328125 4.1875 -3.328125 C 4.3125 -3.328125 4.453125 -3.421875 4.453125 -3.609375 C 4.453125 -3.765625 4.328125 -4.046875 3.984375 -4.046875 C 3.71875 -4.046875 3.3125 -3.953125 3 -3.625 C 2.765625 -3.828125 2.40625 -3.953125 2.03125 -3.953125 C 1.1875 -3.953125 0.546875 -3.34375 0.546875 -2.640625 C 0.546875 -2.1875 0.8125 -1.859375 0.953125 -1.71875 C 0.9375 -1.703125 0.6875 -1.390625 0.6875 -0.984375 C 0.6875 -0.671875 0.828125 -0.359375 1.078125 -0.203125 C 0.609375 -0.046875 0.265625 0.28125 0.265625 0.703125 C 0.265625 1.328125 1.140625 1.84375 2.28125 1.84375 C 3.390625 1.84375 4.328125 1.375 4.328125 0.671875 C 4.328125 0.3125 4.15625 -0.078125 3.828125 -0.296875 C 3.328125 -0.609375 2.8125 -0.609375 1.953125 -0.609375 C 1.78125 -0.609375 1.5 -0.609375 1.421875 -0.625 C 1.15625 -0.671875 0.984375 -0.921875 0.984375 -1.203125 C 0.984375 -1.34375 1.03125 -1.484375 1.125 -1.59375 Z M 2.03125 -1.5625 C 1.234375 -1.5625 1.234375 -2.4375 1.234375 -2.640625 C 1.234375 -2.875 1.25 -3.1875 1.40625 -3.390625 C 1.53125 -3.578125 1.78125 -3.703125 2.03125 -3.703125 C 2.828125 -3.703125 2.828125 -2.84375 2.828125 -2.640625 C 2.828125 -2.4375 2.828125 -1.5625 2.03125 -1.5625 Z M 2.4375 -0.046875 C 2.71875 -0.046875 3.828125 -0.03125 3.828125 0.6875 C 3.828125 1.203125 3.140625 1.59375 2.296875 1.59375 C 1.421875 1.59375 0.765625 1.1875 0.765625 0.6875 C 0.765625 0.546875 0.84375 -0.046875 1.625 -0.046875 Z M 2.4375 -0.046875 "/>
</g>
<g id="glyph-0-22">
<path d="M 1.625 -2.84375 C 1.625 -3.015625 1.625 -3.03125 1.71875 -3.171875 C 2.015625 -3.578125 2.453125 -3.734375 2.796875 -3.734375 C 3.1875 -3.734375 3.546875 -3.515625 3.765625 -3.140625 C 4 -2.75 4.015625 -2.21875 4.015625 -1.9375 C 4.015625 -1.515625 3.96875 -1.046875 3.734375 -0.6875 C 3.546875 -0.40625 3.171875 -0.125 2.703125 -0.125 C 2.296875 -0.125 1.953125 -0.34375 1.75 -0.671875 C 1.625 -0.859375 1.625 -0.859375 1.625 -1.03125 Z M 1.53125 -0.546875 C 1.8125 -0.15625 2.265625 0.09375 2.75 0.09375 C 3.8125 0.09375 4.796875 -0.765625 4.796875 -1.9375 C 4.796875 -3.046875 3.90625 -3.953125 2.828125 -3.953125 C 2.21875 -3.953125 1.8125 -3.640625 1.59375 -3.390625 L 1.59375 -6.203125 L 0.265625 -6.109375 L 0.265625 -5.828125 C 0.875 -5.828125 0.953125 -5.765625 0.953125 -5.328125 L 0.953125 0 L 1.203125 0 Z M 1.53125 -0.546875 "/>
</g>
<g id="glyph-0-23">
<path d="M 2.03125 -3.734375 C 1.3125 -3.921875 1.078125 -4.484375 1.078125 -4.875 C 1.078125 -5.484375 1.5625 -6.046875 2.3125 -6.046875 C 3.46875 -6.046875 3.9375 -5.1875 4.0625 -4.296875 C 4.078125 -4.125 4.09375 -4.078125 4.203125 -4.078125 C 4.328125 -4.078125 4.328125 -4.140625 4.328125 -4.328125 L 4.328125 -6.046875 C 4.328125 -6.234375 4.328125 -6.296875 4.21875 -6.296875 C 4.15625 -6.296875 4.140625 -6.296875 4.078125 -6.1875 C 3.96875 -6.03125 4.0625 -6.140625 3.765625 -5.671875 C 3.609375 -5.859375 3.140625 -6.296875 2.3125 -6.296875 C 1.265625 -6.296875 0.515625 -5.484375 0.515625 -4.578125 C 0.515625 -3.875 0.921875 -3.453125 0.96875 -3.40625 C 1.375 -3.015625 1.53125 -2.96875 2.59375 -2.71875 C 3.328125 -2.546875 3.40625 -2.53125 3.703125 -2.21875 C 3.703125 -2.21875 4.015625 -1.890625 4.015625 -1.359375 C 4.015625 -0.75 3.578125 -0.078125 2.765625 -0.078125 C 2.078125 -0.078125 0.828125 -0.359375 0.765625 -1.84375 C 0.75 -1.96875 0.75 -2.03125 0.640625 -2.03125 C 0.515625 -2.03125 0.515625 -1.953125 0.515625 -1.78125 L 0.515625 -0.046875 C 0.515625 0.125 0.515625 0.203125 0.609375 0.203125 C 0.671875 0.203125 0.6875 0.1875 0.75 0.078125 C 0.859375 -0.078125 0.78125 0.03125 1.078125 -0.421875 C 1.625 0.109375 2.328125 0.203125 2.765625 0.203125 C 3.859375 0.203125 4.578125 -0.703125 4.578125 -1.65625 C 4.578125 -2.15625 4.390625 -2.5625 4.1875 -2.828125 C 3.796875 -3.3125 3.390625 -3.421875 2.8125 -3.546875 Z M 2.03125 -3.734375 "/>
</g>
<g id="glyph-0-24">
<path d="M 1.921875 -5.390625 C 1.875 -5.5 1.875 -5.546875 1.875 -5.5625 C 1.875 -5.828125 2.328125 -5.828125 2.59375 -5.828125 L 2.59375 -6.109375 C 2.1875 -6.078125 1.734375 -6.078125 1.328125 -6.078125 C 0.953125 -6.078125 0.8125 -6.09375 0.171875 -6.109375 L 0.171875 -5.828125 C 0.828125 -5.828125 0.921875 -5.796875 1.046875 -5.484375 L 3.21875 0 C 3.265625 0.140625 3.296875 0.203125 3.4375 0.203125 C 3.578125 0.203125 3.609375 0.140625 3.65625 0.015625 L 5.734375 -5.234375 C 5.921875 -5.703125 6.28125 -5.828125 6.703125 -5.828125 L 6.703125 -6.109375 C 6.390625 -6.078125 6.125 -6.078125 5.828125 -6.078125 C 5.4375 -6.078125 5.265625 -6.09375 4.828125 -6.109375 L 4.828125 -5.828125 C 5.265625 -5.8125 5.453125 -5.609375 5.453125 -5.375 C 5.453125 -5.3125 5.453125 -5.296875 5.421875 -5.203125 L 3.703125 -0.859375 Z M 1.921875 -5.390625 "/>
</g>
<g id="glyph-0-25">
<path d="M 5.34375 -2.3125 L 5.09375 -2.3125 C 5 -1.40625 4.875 -0.28125 3.265625 -0.28125 L 2.5 -0.28125 C 2.078125 -0.28125 2.0625 -0.34375 2.0625 -0.640625 L 2.0625 -5.390625 C 2.0625 -5.71875 2.09375 -5.828125 2.90625 -5.828125 L 3.1875 -5.828125 L 3.1875 -6.109375 C 2.875 -6.078125 2.0625 -6.078125 1.703125 -6.078125 C 1.296875 -6.078125 0.734375 -6.078125 0.34375 -6.109375 L 0.34375 -5.828125 L 0.546875 -5.828125 C 1.234375 -5.828125 1.25 -5.734375 1.25 -5.390625 L 1.25 -0.703125 C 1.25 -0.375 1.234375 -0.28125 0.546875 -0.28125 L 0.34375 -0.28125 L 0.34375 0 L 5.09375 0 Z M 5.34375 -2.3125 "/>
</g>
<g id="glyph-0-26">
<path d="M 3.65625 -6.21875 C 3.609375 -6.328125 3.578125 -6.40625 3.4375 -6.40625 C 3.296875 -6.40625 3.28125 -6.34375 3.21875 -6.203125 L 1.3125 -0.890625 C 1.203125 -0.59375 0.984375 -0.28125 0.296875 -0.28125 L 0.296875 0 C 0.640625 -0.03125 0.890625 -0.03125 1.21875 -0.03125 C 1.53125 -0.03125 1.71875 -0.015625 2.21875 0 L 2.21875 -0.28125 C 1.71875 -0.28125 1.5625 -0.5625 1.5625 -0.734375 C 1.5625 -0.8125 1.578125 -0.859375 1.59375 -0.90625 L 2.015625 -2.0625 L 4.328125 -2.0625 L 4.8125 -0.703125 C 4.859375 -0.609375 4.859375 -0.59375 4.859375 -0.546875 C 4.859375 -0.28125 4.359375 -0.28125 4.125 -0.28125 L 4.125 0 C 4.53125 -0.03125 5 -0.03125 5.40625 -0.03125 C 5.8125 -0.03125 5.84375 -0.03125 6.578125 0 L 6.578125 -0.28125 L 6.421875 -0.28125 C 5.875 -0.28125 5.78125 -0.359375 5.6875 -0.609375 Z M 4.234375 -2.328125 L 2.125 -2.328125 L 3.171875 -5.25 Z M 4.234375 -2.328125 "/>
</g>
<g id="glyph-0-27">
<path d="M 1.625 -3.15625 C 1.578125 -3.28125 1.578125 -3.328125 1.578125 -3.34375 C 1.578125 -3.578125 1.875 -3.578125 2.0625 -3.578125 L 2.0625 -3.859375 C 1.625 -3.828125 1.453125 -3.828125 1.078125 -3.828125 C 1.046875 -3.828125 0.53125 -3.828125 0.1875 -3.859375 L 0.1875 -3.578125 C 0.59375 -3.578125 0.765625 -3.5625 0.859375 -3.3125 L 2.28125 0 L 2.0625 0.53125 C 1.859375 1 1.59375 1.609375 1.015625 1.609375 C 0.796875 1.609375 0.640625 1.5 0.609375 1.46875 C 0.6875 1.46875 0.9375 1.390625 0.9375 1.09375 C 0.9375 0.859375 0.765625 0.71875 0.5625 0.71875 C 0.34375 0.71875 0.171875 0.859375 0.171875 1.09375 C 0.171875 1.5 0.546875 1.828125 1.015625 1.828125 C 1.59375 1.828125 1.984375 1.3125 2.203125 0.828125 L 3.8125 -2.953125 C 3.921875 -3.1875 4.078125 -3.5625 4.640625 -3.578125 L 4.640625 -3.859375 C 4.359375 -3.828125 4.078125 -3.828125 3.96875 -3.828125 C 3.71875 -3.828125 3.4375 -3.828125 3.1875 -3.859375 L 3.1875 -3.578125 C 3.609375 -3.5625 3.609375 -3.234375 3.609375 -3.203125 C 3.609375 -3.09375 3.5625 -3.015625 3.53125 -2.9375 L 2.625 -0.8125 Z M 1.625 -3.15625 "/>
</g>
<g id="glyph-0-28">
<path d="M 5.359375 -5.28125 C 5.921875 -5.8125 6.46875 -5.8125 6.625 -5.828125 L 6.625 -6.109375 C 6.359375 -6.078125 5.921875 -6.078125 5.828125 -6.078125 C 5.453125 -6.078125 5.125 -6.09375 4.71875 -6.109375 L 4.71875 -5.828125 C 4.96875 -5.8125 5.109375 -5.703125 5.109375 -5.53125 C 5.109375 -5.453125 5.078125 -5.390625 5.03125 -5.328125 L 2.0625 -2.578125 L 2.0625 -5.390625 C 2.0625 -5.734375 2.078125 -5.828125 2.765625 -5.828125 L 2.96875 -5.828125 L 2.96875 -6.109375 C 2.5625 -6.078125 2.0625 -6.078125 1.65625 -6.078125 C 1.25 -6.078125 0.734375 -6.078125 0.34375 -6.109375 L 0.34375 -5.828125 L 0.546875 -5.828125 C 1.234375 -5.828125 1.25 -5.734375 1.25 -5.390625 L 1.25 -0.703125 C 1.25 -0.375 1.234375 -0.28125 0.546875 -0.28125 L 0.34375 -0.28125 L 0.34375 0 C 0.734375 -0.03125 1.25 -0.03125 1.65625 -0.03125 C 2.0625 -0.03125 2.5625 -0.03125 2.96875 0 L 2.96875 -0.28125 L 2.765625 -0.28125 C 2.078125 -0.28125 2.0625 -0.375 2.0625 -0.703125 L 2.0625 -2.234375 L 3.140625 -3.25 L 4.8125 -0.859375 C 4.890625 -0.765625 4.96875 -0.640625 4.96875 -0.53125 C 4.96875 -0.28125 4.625 -0.28125 4.453125 -0.28125 L 4.453125 0 C 4.859375 -0.03125 5.296875 -0.03125 5.703125 -0.03125 C 5.9375 -0.03125 6.296875 -0.03125 6.75 0 L 6.75 -0.28125 C 6.1875 -0.28125 6.0625 -0.359375 5.78125 -0.765625 L 3.6875 -3.734375 Z M 5.359375 -5.28125 "/>
</g>
<g id="glyph-0-29">
<path d="M 2.0625 -5.390625 C 2.0625 -5.71875 2.078125 -5.828125 2.78125 -5.828125 L 3.015625 -5.828125 L 3.015625 -6.109375 C 2.640625 -6.078125 2.03125 -6.078125 1.65625 -6.078125 C 1.265625 -6.078125 0.65625 -6.078125 0.296875 -6.109375 L 0.296875 -5.828125 L 0.515625 -5.828125 C 1.234375 -5.828125 1.25 -5.71875 1.25 -5.390625 L 1.25 -0.703125 C 1.25 -0.390625 1.234375 -0.28125 0.515625 -0.28125 L 0.296875 -0.28125 L 0.296875 0 C 0.65625 -0.03125 1.265625 -0.03125 1.65625 -0.03125 C 2.03125 -0.03125 2.640625 -0.03125 3.015625 0 L 3.015625 -0.28125 L 2.78125 -0.28125 C 2.078125 -0.28125 2.0625 -0.390625 2.0625 -0.703125 Z M 2.0625 -5.390625 "/>
</g>
<g id="glyph-0-30">
<path d="M 1.625 -0.140625 C 1.625 0.15625 1.625 0.890625 0.953125 1.53125 C 0.90625 1.578125 0.90625 1.609375 0.90625 1.625 C 0.90625 1.65625 0.96875 1.71875 1.03125 1.71875 C 1.125 1.71875 1.84375 1.03125 1.84375 -0.015625 C 1.84375 -0.640625 1.625 -0.96875 1.265625 -0.96875 C 0.953125 -0.96875 0.78125 -0.71875 0.78125 -0.484375 C 0.78125 -0.234375 0.953125 0 1.265625 0 C 1.5 0 1.625 -0.140625 1.625 -0.140625 Z M 1.625 -0.140625 "/>
</g>
<g id="glyph-0-31">
<path d="M 1.59375 -1.9375 L 1.59375 -6.203125 L 0.265625 -6.109375 L 0.265625 -5.828125 C 0.875 -5.828125 0.953125 -5.765625 0.953125 -5.328125 L 0.953125 -0.6875 C 0.953125 -0.28125 0.859375 -0.28125 0.265625 -0.28125 L 0.265625 0 C 0.65625 -0.015625 0.890625 -0.03125 1.265625 -0.03125 C 1.625 -0.03125 1.84375 -0.015625 2.25 0 L 2.25 -0.28125 C 1.65625 -0.28125 1.5625 -0.28125 1.5625 -0.6875 L 1.5625 -1.59375 L 2.140625 -2.078125 L 3 -0.90625 C 3.140625 -0.703125 3.21875 -0.59375 3.21875 -0.46875 C 3.21875 -0.390625 3.1875 -0.28125 2.90625 -0.28125 L 2.90625 0 C 3.3125 -0.015625 3.53125 -0.03125 3.875 -0.03125 C 4.140625 -0.03125 4.421875 -0.03125 4.6875 0 L 4.6875 -0.28125 C 4.390625 -0.28125 4.171875 -0.28125 3.859375 -0.71875 L 2.578125 -2.4375 C 3.453125 -3.203125 3.875 -3.546875 4.484375 -3.578125 L 4.484375 -3.859375 C 4.171875 -3.828125 4.140625 -3.828125 3.8125 -3.828125 C 3.546875 -3.828125 3.3125 -3.828125 2.828125 -3.859375 L 2.828125 -3.578125 C 2.96875 -3.5625 3.078125 -3.5 3.078125 -3.359375 C 3.078125 -3.1875 2.9375 -3.078125 2.84375 -3 Z M 1.59375 -1.9375 "/>
</g>
<g id="glyph-1-0">
<path d="M 7.609375 -2.046875 C 6.546875 -1.28125 6.328125 -0.109375 6.328125 -0.015625 C 6.328125 0.109375 6.4375 0.109375 6.515625 0.109375 C 6.625 0.109375 6.6875 0.109375 6.71875 -0.015625 C 6.953125 -1.0625 7.5625 -1.765625 8.546875 -2.125 C 8.59375 -2.140625 8.671875 -2.15625 8.671875 -2.234375 C 8.671875 -2.3125 8.609375 -2.34375 8.546875 -2.359375 C 7.421875 -2.78125 6.921875 -3.578125 6.71875 -4.453125 C 6.6875 -4.578125 6.65625 -4.578125 6.515625 -4.578125 C 6.4375 -4.578125 6.328125 -4.578125 6.328125 -4.453125 C 6.328125 -4.359375 6.546875 -3.1875 7.609375 -2.4375 L 0.84375 -2.4375 C 0.6875 -2.4375 0.515625 -2.4375 0.515625 -2.25 C 0.515625 -2.046875 0.671875 -2.046875 0.84375 -2.046875 Z M 7.609375 -2.046875 "/>
</g>
<g id="glyph-1-1">
<path d="M 3.765625 -2.8125 L 6.296875 -2.8125 C 6.4375 -2.8125 6.625 -2.8125 6.625 -3 C 6.625 -3.203125 6.453125 -3.203125 6.296875 -3.203125 L 3.765625 -3.203125 L 3.765625 -5.71875 C 3.765625 -5.859375 3.765625 -6.0625 3.5625 -6.0625 C 3.375 -6.0625 3.375 -5.890625 3.375 -5.75 L 3.375 -3.203125 L 0.84375 -3.203125 C 0.6875 -3.203125 0.515625 -3.203125 0.515625 -3.015625 C 0.515625 -2.8125 0.671875 -2.8125 0.84375 -2.8125 L 3.375 -2.8125 L 3.375 -0.328125 L 0.84375 -0.328125 C 0.6875 -0.328125 0.515625 -0.328125 0.515625 -0.140625 C 0.515625 0.046875 0.671875 0.046875 0.84375 0.046875 L 6.296875 0.046875 C 6.4375 0.046875 6.625 0.046875 6.625 -0.140625 C 6.625 -0.328125 6.453125 -0.328125 6.296875 -0.328125 L 3.765625 -0.328125 Z M 3.765625 -2.8125 "/>
</g>
<g id="glyph-2-0">
<path d="M 3.34375 -3.578125 L 4.140625 -3.578125 C 4.328125 -3.578125 4.421875 -3.578125 4.421875 -3.734375 C 4.421875 -3.859375 4.328125 -3.859375 4.15625 -3.859375 L 3.390625 -3.859375 C 3.5 -4.390625 3.625 -5.125 3.734375 -5.609375 C 3.8125 -5.953125 4.03125 -6.078125 4.203125 -6.078125 C 4.265625 -6.078125 4.46875 -6.0625 4.625 -5.953125 C 4.4375 -5.921875 4.1875 -5.75 4.1875 -5.453125 C 4.1875 -5.234375 4.359375 -5.140625 4.515625 -5.140625 C 4.765625 -5.140625 5.015625 -5.328125 5.015625 -5.671875 C 5.015625 -6.078125 4.625 -6.296875 4.203125 -6.296875 C 3.796875 -6.296875 3.390625 -6.015625 3.203125 -5.65625 C 3.015625 -5.265625 2.953125 -4.921875 2.765625 -3.859375 L 2.125 -3.859375 C 1.953125 -3.859375 1.84375 -3.859375 1.84375 -3.6875 C 1.84375 -3.578125 1.9375 -3.578125 2.09375 -3.578125 L 2.703125 -3.578125 C 2.453125 -2.28125 2.140625 -0.484375 1.953125 0.4375 C 1.84375 0.921875 1.703125 1.609375 1.265625 1.609375 C 1.140625 1.609375 0.953125 1.5625 0.859375 1.484375 C 1.09375 1.453125 1.3125 1.265625 1.3125 0.984375 C 1.3125 0.765625 1.140625 0.671875 0.96875 0.671875 C 0.734375 0.671875 0.484375 0.859375 0.484375 1.203125 C 0.484375 1.625 0.890625 1.828125 1.265625 1.828125 C 2.1875 1.828125 2.59375 0.34375 2.75 -0.421875 Z M 3.34375 -3.578125 "/>
</g>
<g id="glyph-3-0">
<path d="M 2.9375 -1.328125 L 4.859375 -1.328125 C 4.9375 -1.328125 5.09375 -1.328125 5.09375 -1.484375 C 5.09375 -1.640625 4.9375 -1.640625 4.859375 -1.640625 L 2.9375 -1.640625 L 2.9375 -3.578125 C 2.9375 -3.65625 2.9375 -3.796875 2.78125 -3.796875 C 2.625 -3.796875 2.625 -3.65625 2.625 -3.578125 L 2.625 -1.640625 L 0.703125 -1.640625 C 0.625 -1.640625 0.46875 -1.640625 0.46875 -1.484375 C 0.46875 -1.328125 0.625 -1.328125 0.703125 -1.328125 L 2.625 -1.328125 L 2.625 0.59375 C 2.625 0.671875 2.625 0.828125 2.78125 0.828125 C 2.9375 0.828125 2.9375 0.671875 2.9375 0.59375 Z M 2.9375 -1.328125 "/>
</g>
<g id="glyph-4-0">
<path d="M 1.390625 -2.75 L 2.484375 -2.75 L 2.484375 -3 L 1.390625 -3 L 1.390625 -4.28125 L 1.15625 -4.28125 C 1.15625 -3.65625 0.875 -2.96875 0.203125 -2.9375 L 0.203125 -2.75 L 0.84375 -2.75 L 0.84375 -0.875 C 0.84375 -0.09375 1.4375 0.0625 1.828125 0.0625 C 2.28125 0.0625 2.609375 -0.328125 2.609375 -0.875 L 2.609375 -1.265625 L 2.375 -1.265625 L 2.375 -0.890625 C 2.375 -0.40625 2.15625 -0.15625 1.875 -0.15625 C 1.390625 -0.15625 1.390625 -0.734375 1.390625 -0.859375 Z M 1.390625 -2.75 "/>
</g>
<g id="glyph-4-1">
<path d="M 1.390625 -1.578125 C 1.390625 -2.171875 1.65625 -2.875 2.3125 -2.875 C 2.25 -2.828125 2.203125 -2.734375 2.203125 -2.625 C 2.203125 -2.390625 2.375 -2.296875 2.515625 -2.296875 C 2.671875 -2.296875 2.828125 -2.40625 2.828125 -2.625 C 2.828125 -2.859375 2.609375 -3.0625 2.28125 -3.0625 C 1.9375 -3.0625 1.546875 -2.84375 1.34375 -2.328125 L 1.328125 -2.328125 L 1.328125 -3.0625 L 0.34375 -2.984375 L 0.34375 -2.734375 C 0.8125 -2.734375 0.859375 -2.6875 0.859375 -2.34375 L 0.859375 -0.546875 C 0.859375 -0.25 0.796875 -0.25 0.34375 -0.25 L 0.34375 0 C 0.375 0 0.84375 -0.03125 1.140625 -0.03125 C 1.4375 -0.03125 1.734375 -0.015625 2.03125 0 L 2.03125 -0.25 L 1.890625 -0.25 C 1.390625 -0.25 1.390625 -0.328125 1.390625 -0.5625 Z M 1.390625 -1.578125 "/>
</g>
<g id="glyph-4-2">
<path d="M 3.09375 -1.859375 C 3.09375 -2.234375 3.09375 -2.5 2.78125 -2.75 C 2.5 -2.984375 2.15625 -3.09375 1.75 -3.09375 C 1.09375 -3.09375 0.625 -2.84375 0.625 -2.421875 C 0.625 -2.203125 0.78125 -2.09375 0.953125 -2.09375 C 1.140625 -2.09375 1.28125 -2.21875 1.28125 -2.40625 C 1.28125 -2.53125 1.234375 -2.671875 1.046875 -2.734375 C 1.296875 -2.90625 1.703125 -2.90625 1.734375 -2.90625 C 2.125 -2.90625 2.546875 -2.65625 2.546875 -2.0625 L 2.546875 -1.84375 C 2.171875 -1.828125 1.703125 -1.8125 1.203125 -1.625 C 0.578125 -1.390625 0.375 -1.015625 0.375 -0.703125 C 0.375 -0.109375 1.109375 0.0625 1.59375 0.0625 C 2.15625 0.0625 2.484375 -0.25 2.625 -0.515625 C 2.65625 -0.234375 2.84375 0.03125 3.15625 0.03125 C 3.171875 0.03125 3.859375 0.03125 3.859375 -0.625 L 3.859375 -1.015625 L 3.609375 -1.015625 L 3.609375 -0.625 C 3.609375 -0.5625 3.609375 -0.234375 3.359375 -0.234375 C 3.09375 -0.234375 3.09375 -0.5625 3.09375 -0.640625 Z M 2.546875 -0.984375 C 2.546875 -0.3125 1.96875 -0.125 1.65625 -0.125 C 1.296875 -0.125 0.96875 -0.359375 0.96875 -0.703125 C 0.96875 -1.078125 1.296875 -1.625 2.546875 -1.671875 Z M 2.546875 -0.984375 "/>
</g>
<g id="glyph-4-3">
<path d="M 1.46875 -4.296875 C 1.46875 -4.484375 1.296875 -4.6875 1.0625 -4.6875 C 0.859375 -4.6875 0.671875 -4.515625 0.671875 -4.296875 C 0.671875 -4.046875 0.875 -3.890625 1.0625 -3.890625 C 1.28125 -3.890625 1.46875 -4.0625 1.46875 -4.296875 Z M 0.40625 -2.984375 L 0.40625 -2.734375 C 0.84375 -2.734375 0.90625 -2.703125 0.90625 -2.359375 L 0.90625 -0.546875 C 0.90625 -0.25 0.84375 -0.25 0.390625 -0.25 L 0.390625 0 C 0.40625 0 0.890625 -0.03125 1.171875 -0.03125 C 1.40625 -0.03125 1.65625 -0.015625 1.90625 0 L 1.90625 -0.25 C 1.5 -0.25 1.4375 -0.25 1.4375 -0.546875 L 1.4375 -3.0625 Z M 0.40625 -2.984375 "/>
</g>
<g id="glyph-4-4">
<path d="M 3.578125 -2.109375 C 3.578125 -2.71875 3.28125 -3.0625 2.53125 -3.0625 C 1.96875 -3.0625 1.59375 -2.75 1.40625 -2.390625 L 1.390625 -2.390625 L 1.390625 -3.0625 L 0.375 -2.984375 L 0.375 -2.734375 C 0.84375 -2.734375 0.890625 -2.6875 0.890625 -2.34375 L 0.890625 -0.546875 C 0.890625 -0.25 0.828125 -0.25 0.375 -0.25 L 0.375 0 C 0.390625 0 0.875 -0.03125 1.171875 -0.03125 C 1.421875 -0.03125 1.90625 0 1.96875 0 L 1.96875 -0.25 C 1.515625 -0.25 1.453125 -0.25 1.453125 -0.546875 L 1.453125 -1.796875 C 1.453125 -2.53125 2.015625 -2.875 2.484375 -2.875 C 2.96875 -2.875 3.03125 -2.484375 3.03125 -2.140625 L 3.03125 -0.546875 C 3.03125 -0.25 2.96875 -0.25 2.515625 -0.25 L 2.515625 0 C 2.53125 0 3.015625 -0.03125 3.296875 -0.03125 C 3.5625 -0.03125 4.046875 0 4.109375 0 L 4.109375 -0.25 C 3.65625 -0.25 3.578125 -0.25 3.578125 -0.546875 Z M 3.578125 -2.109375 "/>
</g>
<g id="glyph-4-5">
<path d="M 2.71875 -3.015625 C 2.640625 -3.015625 2.59375 -3.015625 2.59375 -3 C 2.578125 -3 2.5625 -3 2.46875 -3 L 1.359375 -3 L 1.359375 -3.75 C 1.359375 -4.4375 2.078125 -4.703125 2.546875 -4.703125 C 2.78125 -4.703125 3.03125 -4.65625 3.203125 -4.5 C 2.953125 -4.453125 2.9375 -4.25 2.9375 -4.171875 C 2.9375 -3.953125 3.109375 -3.828125 3.28125 -3.828125 C 3.40625 -3.828125 3.609375 -3.921875 3.609375 -4.1875 C 3.609375 -4.5625 3.21875 -4.890625 2.578125 -4.890625 C 1.859375 -4.890625 0.859375 -4.5625 0.859375 -3.765625 L 0.859375 -3 L 0.265625 -3 L 0.265625 -2.75 L 0.859375 -2.75 L 0.859375 -0.546875 C 0.859375 -0.25 0.796875 -0.25 0.34375 -0.25 L 0.34375 0 C 0.359375 0 0.84375 -0.03125 1.125 -0.03125 C 1.390625 -0.03125 1.640625 -0.015625 1.90625 0 L 1.90625 -0.25 C 1.453125 -0.25 1.390625 -0.25 1.390625 -0.546875 L 1.390625 -2.75 L 2.765625 -2.75 C 3.046875 -2.75 3.109375 -2.671875 3.109375 -2.375 L 3.109375 -0.546875 C 3.109375 -0.25 3.03125 -0.25 2.59375 -0.25 L 2.59375 0 C 2.59375 0 3.09375 -0.03125 3.359375 -0.03125 C 3.625 -0.03125 3.890625 -0.015625 4.15625 0 L 4.15625 -0.25 C 3.703125 -0.25 3.625 -0.25 3.625 -0.546875 L 3.625 -3.078125 Z M 2.71875 -3.015625 "/>
</g>
<g id="glyph-4-6">
<path d="M 3.0625 -1.578125 C 3.203125 -1.578125 3.25 -1.578125 3.25 -1.734375 C 3.25 -2.34375 2.90625 -3.09375 1.875 -3.09375 C 0.96875 -3.09375 0.265625 -2.375 0.265625 -1.515625 C 0.265625 -0.640625 1.046875 0.0625 1.96875 0.0625 C 2.90625 0.0625 3.25 -0.6875 3.25 -0.828125 C 3.25 -0.859375 3.234375 -0.9375 3.140625 -0.9375 C 3.046875 -0.9375 3.03125 -0.890625 3.015625 -0.828125 C 2.796875 -0.25 2.265625 -0.15625 2.015625 -0.15625 C 1.6875 -0.15625 1.375 -0.296875 1.171875 -0.5625 C 0.90625 -0.890625 0.90625 -1.3125 0.90625 -1.578125 Z M 0.90625 -1.765625 C 0.984375 -2.75 1.609375 -2.90625 1.875 -2.90625 C 2.734375 -2.90625 2.765625 -1.9375 2.765625 -1.765625 Z M 0.90625 -1.765625 "/>
</g>
<g id="glyph-4-7">
<path d="M 2.1875 -1.265625 L 2.1875 -1.734375 L 0.140625 -1.734375 L 0.140625 -1.265625 Z M 2.1875 -1.265625 "/>
</g>
<g id="glyph-4-8">
<path d="M 2.515625 -2.984375 L 2.515625 -2.734375 C 2.96875 -2.734375 3.03125 -2.6875 3.03125 -2.34375 L 3.03125 -1.15625 C 3.03125 -0.546875 2.640625 -0.125 2.109375 -0.125 C 1.46875 -0.125 1.453125 -0.421875 1.453125 -0.78125 L 1.453125 -3.0625 L 0.375 -2.984375 L 0.375 -2.734375 C 0.890625 -2.734375 0.890625 -2.71875 0.890625 -2.09375 L 0.890625 -1.0625 C 0.890625 -0.578125 0.890625 0.0625 2.0625 0.0625 C 2.21875 0.0625 2.71875 0.0625 3.046875 -0.515625 L 3.0625 -0.515625 L 3.0625 0.0625 L 4.109375 0 L 4.109375 -0.25 C 3.640625 -0.25 3.578125 -0.296875 3.578125 -0.640625 L 3.578125 -3.0625 Z M 2.515625 -2.984375 "/>
</g>
<g id="glyph-4-9">
<path d="M 2.328125 -4.421875 C 2.328125 -4.609375 2.3125 -4.609375 2.125 -4.609375 C 1.671875 -4.171875 1.046875 -4.171875 0.765625 -4.171875 L 0.765625 -3.921875 C 0.921875 -3.921875 1.390625 -3.921875 1.765625 -4.109375 L 1.765625 -0.5625 C 1.765625 -0.34375 1.765625 -0.25 1.078125 -0.25 L 0.8125 -0.25 L 0.8125 0 C 0.9375 0 1.78125 -0.03125 2.046875 -0.03125 C 2.265625 -0.03125 3.140625 0 3.28125 0 L 3.28125 -0.25 L 3.03125 -0.25 C 2.328125 -0.25 2.328125 -0.34375 2.328125 -0.5625 Z M 2.328125 -4.421875 "/>
</g>
<g id="glyph-4-10">
<path d="M 3.515625 -1.265625 L 3.28125 -1.265625 C 3.25 -1.109375 3.1875 -0.703125 3.09375 -0.625 C 3.03125 -0.59375 2.5 -0.59375 2.40625 -0.59375 L 1.125 -0.59375 C 1.859375 -1.234375 2.09375 -1.4375 2.515625 -1.765625 C 3.03125 -2.171875 3.515625 -2.59375 3.515625 -3.265625 C 3.515625 -4.109375 2.78125 -4.609375 1.890625 -4.609375 C 1.015625 -4.609375 0.4375 -4.015625 0.4375 -3.375 C 0.4375 -3.015625 0.734375 -2.984375 0.8125 -2.984375 C 0.96875 -2.984375 1.171875 -3.09375 1.171875 -3.34375 C 1.171875 -3.484375 1.125 -3.71875 0.765625 -3.71875 C 0.984375 -4.21875 1.453125 -4.359375 1.78125 -4.359375 C 2.46875 -4.359375 2.84375 -3.828125 2.84375 -3.265625 C 2.84375 -2.65625 2.40625 -2.171875 2.1875 -1.921875 L 0.5 -0.265625 C 0.4375 -0.203125 0.4375 -0.1875 0.4375 0 L 3.296875 0 Z M 3.515625 -1.265625 "/>
</g>
<g id="glyph-4-11">
<path d="M 2.640625 -2.921875 C 2.640625 -3.03125 2.640625 -3.09375 2.53125 -3.09375 C 2.5 -3.09375 2.484375 -3.09375 2.40625 -3.015625 C 2.390625 -3.015625 2.3125 -2.953125 2.28125 -2.90625 C 2.0625 -3.0625 1.796875 -3.09375 1.546875 -3.09375 C 0.546875 -3.09375 0.3125 -2.578125 0.3125 -2.234375 C 0.3125 -2.015625 0.40625 -1.828125 0.578125 -1.6875 C 0.84375 -1.453125 1.109375 -1.40625 1.53125 -1.34375 C 1.890625 -1.28125 2.453125 -1.1875 2.453125 -0.71875 C 2.453125 -0.4375 2.265625 -0.125 1.59375 -0.125 C 0.921875 -0.125 0.6875 -0.5625 0.5625 -1.03125 C 0.53125 -1.125 0.53125 -1.15625 0.4375 -1.15625 C 0.3125 -1.15625 0.3125 -1.109375 0.3125 -0.96875 L 0.3125 -0.109375 C 0.3125 0 0.3125 0.0625 0.40625 0.0625 C 0.46875 0.0625 0.609375 -0.078125 0.75 -0.234375 C 1.046875 0.0625 1.421875 0.0625 1.59375 0.0625 C 2.5 0.0625 2.828125 -0.421875 2.828125 -0.90625 C 2.828125 -1.171875 2.71875 -1.390625 2.53125 -1.546875 C 2.265625 -1.796875 1.953125 -1.84375 1.703125 -1.890625 C 1.140625 -1.984375 0.703125 -2.078125 0.703125 -2.4375 C 0.703125 -2.65625 0.890625 -2.9375 1.546875 -2.9375 C 2.34375 -2.9375 2.390625 -2.375 2.40625 -2.171875 C 2.40625 -2.09375 2.484375 -2.09375 2.515625 -2.09375 C 2.640625 -2.09375 2.640625 -2.140625 2.640625 -2.28125 Z M 2.640625 -2.921875 "/>
</g>
<g id="glyph-4-12">
<path d="M 1.9375 1.09375 C 1.484375 1.09375 1.40625 1.09375 1.40625 0.796875 L 1.40625 -0.328125 C 1.453125 -0.296875 1.765625 0.0625 2.359375 0.0625 C 3.28125 0.0625 4.0625 -0.625 4.0625 -1.5 C 4.0625 -2.359375 3.34375 -3.0625 2.46875 -3.0625 C 2.078125 -3.0625 1.671875 -2.921875 1.390625 -2.640625 L 1.390625 -3.0625 L 0.34375 -2.984375 L 0.34375 -2.734375 C 0.828125 -2.734375 0.859375 -2.703125 0.859375 -2.40625 L 0.859375 0.796875 C 0.859375 1.09375 0.796875 1.09375 0.34375 1.09375 L 0.34375 1.34375 C 0.359375 1.34375 0.84375 1.328125 1.140625 1.328125 C 1.390625 1.328125 1.875 1.34375 1.9375 1.34375 Z M 1.40625 -2.3125 C 1.625 -2.65625 2.015625 -2.84375 2.390625 -2.84375 C 2.96875 -2.84375 3.421875 -2.234375 3.421875 -1.5 C 3.421875 -0.703125 2.90625 -0.125 2.3125 -0.125 C 1.703125 -0.125 1.4375 -0.65625 1.40625 -0.703125 Z M 1.40625 -2.3125 "/>
</g>
<g id="glyph-4-13">
<path d="M 5.1875 -4.703125 L 0.484375 -4.703125 L 0.328125 -3.09375 L 0.5625 -3.09375 C 0.671875 -4.296875 0.875 -4.453125 1.9375 -4.453125 C 2.078125 -4.453125 2.28125 -4.453125 2.34375 -4.4375 C 2.5 -4.421875 2.5 -4.34375 2.5 -4.171875 L 2.5 -0.5625 C 2.5 -0.34375 2.5 -0.25 1.78125 -0.25 L 1.484375 -0.25 L 1.484375 0 C 1.828125 -0.03125 2.46875 -0.03125 2.84375 -0.03125 C 3.203125 -0.03125 3.84375 -0.03125 4.171875 0 L 4.171875 -0.25 L 3.890625 -0.25 C 3.15625 -0.25 3.15625 -0.34375 3.15625 -0.5625 L 3.15625 -4.171875 C 3.15625 -4.34375 3.15625 -4.421875 3.3125 -4.4375 C 3.390625 -4.453125 3.59375 -4.453125 3.734375 -4.453125 C 4.109375 -4.453125 4.421875 -4.453125 4.65625 -4.3125 C 4.96875 -4.125 5.015625 -3.671875 5.03125 -3.640625 L 5.09375 -3.09375 L 5.328125 -3.09375 Z M 5.1875 -4.703125 "/>
</g>
<g id="glyph-4-14">
<path d="M 0.40625 -4.75 L 0.40625 -4.5 L 0.5625 -4.5 C 1.109375 -4.5 1.125 -4.421875 1.125 -4.1875 L 1.125 -0.5625 C 1.125 -0.328125 1.109375 -0.25 0.5625 -0.25 L 0.40625 -0.25 L 0.40625 0 L 3.140625 0 C 4.421875 0 5.484375 -1.03125 5.484375 -2.34375 C 5.484375 -3.65625 4.4375 -4.75 3.140625 -4.75 Z M 2.09375 -0.25 C 1.765625 -0.25 1.75 -0.3125 1.75 -0.515625 L 1.75 -4.234375 C 1.75 -4.4375 1.765625 -4.5 2.09375 -4.5 L 2.953125 -4.5 C 3.546875 -4.5 4.046875 -4.25 4.375 -3.84375 C 4.65625 -3.46875 4.765625 -2.9375 4.765625 -2.34375 C 4.765625 -1.53125 4.5625 -1.109375 4.328125 -0.828125 C 4.015625 -0.46875 3.515625 -0.25 2.953125 -0.25 Z M 2.09375 -0.25 "/>
</g>
<g id="glyph-4-15">
<path d="M 3.296875 -2.3125 C 3.484375 -2.734375 3.84375 -2.75 3.953125 -2.75 L 3.953125 -3 C 3.78125 -2.984375 3.59375 -2.96875 3.421875 -2.96875 C 3.234375 -2.96875 2.96875 -2.96875 2.78125 -3 L 2.78125 -2.75 C 3.078125 -2.734375 3.078125 -2.5 3.078125 -2.484375 C 3.078125 -2.453125 3.078125 -2.375 3.03125 -2.28125 L 2.234375 -0.5625 L 1.375 -2.453125 C 1.375 -2.46875 1.328125 -2.53125 1.328125 -2.59375 C 1.328125 -2.75 1.578125 -2.75 1.6875 -2.75 L 1.6875 -3 C 1.671875 -3 1.1875 -2.96875 0.890625 -2.96875 C 0.6875 -2.96875 0.421875 -2.96875 0.21875 -3 L 0.21875 -2.75 C 0.59375 -2.75 0.6875 -2.734375 0.78125 -2.5 L 1.890625 -0.078125 C 1.921875 0 1.953125 0.0625 2.078125 0.0625 C 2.21875 0.0625 2.234375 0 2.28125 -0.0625 Z M 3.296875 -2.3125 "/>
</g>
<g id="glyph-4-16">
<path d="M 3.28125 -2.3125 C 3.484375 -2.734375 3.84375 -2.75 3.953125 -2.75 L 3.953125 -3 C 3.75 -2.984375 3.625 -2.96875 3.421875 -2.96875 C 3.234375 -2.96875 2.96875 -2.96875 2.78125 -3 L 2.78125 -2.75 C 3.015625 -2.734375 3.078125 -2.59375 3.078125 -2.484375 C 3.078125 -2.40625 3.03125 -2.34375 3.015625 -2.265625 L 2.234375 -0.625 L 1.390625 -2.453125 C 1.359375 -2.5 1.34375 -2.53125 1.34375 -2.59375 C 1.34375 -2.75 1.578125 -2.75 1.703125 -2.75 L 1.703125 -3 C 1.59375 -2.984375 1.09375 -2.96875 0.890625 -2.96875 C 0.6875 -2.96875 0.421875 -2.96875 0.21875 -3 L 0.21875 -2.75 C 0.609375 -2.75 0.6875 -2.71875 0.78125 -2.5 L 1.953125 0 C 1.890625 0.140625 1.828125 0.265625 1.765625 0.40625 C 1.609375 0.75 1.390625 1.21875 0.90625 1.21875 C 0.734375 1.21875 0.6875 1.1875 0.609375 1.140625 C 0.625 1.140625 0.8125 1.078125 0.8125 0.84375 C 0.8125 0.671875 0.6875 0.546875 0.515625 0.546875 C 0.328125 0.546875 0.203125 0.671875 0.203125 0.84375 C 0.203125 1.171875 0.53125 1.421875 0.90625 1.421875 C 1.5 1.421875 1.84375 0.796875 1.9375 0.59375 Z M 3.28125 -2.3125 "/>
</g>
<g id="glyph-4-17">
<path d="M 1.4375 -2.75 L 2.296875 -2.75 L 2.296875 -3 L 1.40625 -3 L 1.40625 -3.78125 C 1.40625 -4.40625 1.78125 -4.703125 2.078125 -4.703125 C 2.140625 -4.703125 2.21875 -4.6875 2.28125 -4.671875 C 2.1875 -4.609375 2.125 -4.5 2.125 -4.390625 C 2.125 -4.203125 2.265625 -4.0625 2.453125 -4.0625 C 2.640625 -4.0625 2.765625 -4.203125 2.765625 -4.390625 C 2.765625 -4.6875 2.46875 -4.890625 2.09375 -4.890625 C 1.53125 -4.890625 0.90625 -4.5 0.90625 -3.78125 L 0.90625 -3 L 0.3125 -3 L 0.3125 -2.75 L 0.90625 -2.75 L 0.90625 -0.546875 C 0.90625 -0.25 0.84375 -0.25 0.390625 -0.25 L 0.390625 0 C 0.421875 0 0.890625 -0.03125 1.1875 -0.03125 C 1.484375 -0.03125 1.78125 -0.015625 2.09375 0 L 2.09375 -0.25 L 1.953125 -0.25 C 1.4375 -0.25 1.4375 -0.328125 1.4375 -0.5625 Z M 1.4375 -2.75 "/>
</g>
<g id="glyph-4-18">
<path d="M 5.71875 -2.109375 C 5.71875 -2.71875 5.421875 -3.0625 4.671875 -3.0625 C 4.125 -3.0625 3.75 -2.765625 3.5625 -2.421875 C 3.421875 -2.90625 3.046875 -3.0625 2.53125 -3.0625 C 1.96875 -3.0625 1.59375 -2.75 1.40625 -2.390625 L 1.390625 -2.390625 L 1.390625 -3.0625 L 0.375 -2.984375 L 0.375 -2.734375 C 0.84375 -2.734375 0.890625 -2.6875 0.890625 -2.34375 L 0.890625 -0.546875 C 0.890625 -0.25 0.828125 -0.25 0.375 -0.25 L 0.375 0 C 0.390625 0 0.875 -0.03125 1.171875 -0.03125 C 1.421875 -0.03125 1.90625 0 1.96875 0 L 1.96875 -0.25 C 1.515625 -0.25 1.453125 -0.25 1.453125 -0.546875 L 1.453125 -1.796875 C 1.453125 -2.53125 2.015625 -2.875 2.484375 -2.875 C 2.96875 -2.875 3.03125 -2.484375 3.03125 -2.140625 L 3.03125 -0.546875 C 3.03125 -0.25 2.96875 -0.25 2.515625 -0.25 L 2.515625 0 C 2.53125 0 3.015625 -0.03125 3.296875 -0.03125 C 3.5625 -0.03125 4.046875 0 4.109375 0 L 4.109375 -0.25 C 3.65625 -0.25 3.578125 -0.25 3.578125 -0.546875 L 3.578125 -1.796875 C 3.578125 -2.53125 4.15625 -2.875 4.609375 -2.875 C 5.109375 -2.875 5.171875 -2.484375 5.171875 -2.140625 L 5.171875 -0.546875 C 5.171875 -0.25 5.09375 -0.25 4.640625 -0.25 L 4.640625 0 C 4.65625 0 5.140625 -0.03125 5.4375 -0.03125 C 5.6875 -0.03125 6.171875 0 6.234375 0 L 6.234375 -0.25 C 5.78125 -0.25 5.71875 -0.25 5.71875 -0.546875 Z M 5.71875 -2.109375 "/>
</g>
<g id="glyph-4-19">
<path d="M 3.671875 -1.484375 C 3.671875 -2.34375 2.9375 -3.09375 1.96875 -3.09375 C 1.015625 -3.09375 0.265625 -2.34375 0.265625 -1.484375 C 0.265625 -0.625 1.03125 0.0625 1.96875 0.0625 C 2.90625 0.0625 3.671875 -0.625 3.671875 -1.484375 Z M 1.96875 -0.15625 C 1.71875 -0.15625 1.34375 -0.234375 1.109375 -0.578125 C 0.921875 -0.859375 0.90625 -1.21875 0.90625 -1.546875 C 0.90625 -1.84375 0.90625 -2.25 1.15625 -2.546875 C 1.328125 -2.75 1.625 -2.90625 1.96875 -2.90625 C 2.390625 -2.90625 2.671875 -2.71875 2.828125 -2.5 C 3.03125 -2.21875 3.046875 -1.875 3.046875 -1.546875 C 3.046875 -1.203125 3.03125 -0.84375 2.828125 -0.5625 C 2.640625 -0.296875 2.3125 -0.15625 1.96875 -0.15625 Z M 1.96875 -0.15625 "/>
</g>
<g id="glyph-4-20">
<path d="M 1.4375 -4.828125 L 0.390625 -4.75 L 0.390625 -4.5 C 0.859375 -4.5 0.90625 -4.453125 0.90625 -4.109375 L 0.90625 -0.546875 C 0.90625 -0.25 0.84375 -0.25 0.390625 -0.25 L 0.390625 0 C 0.40625 0 0.890625 -0.03125 1.171875 -0.03125 C 1.4375 -0.03125 1.6875 -0.015625 1.953125 0 L 1.953125 -0.25 C 1.5 -0.25 1.4375 -0.25 1.4375 -0.546875 Z M 1.4375 -4.828125 "/>
</g>
<g id="glyph-4-21">
<path d="M 1.390625 -4.828125 L 0.34375 -4.75 L 0.34375 -4.5 C 0.8125 -4.5 0.859375 -4.4375 0.859375 -4.09375 L 0.859375 0 L 1.09375 0 L 1.34375 -0.421875 C 1.609375 -0.078125 1.984375 0.0625 2.359375 0.0625 C 3.28125 0.0625 4.0625 -0.625 4.0625 -1.5 C 4.0625 -2.34375 3.34375 -3.0625 2.4375 -3.0625 C 2.015625 -3.0625 1.640625 -2.90625 1.390625 -2.65625 Z M 1.40625 -2.328125 C 1.609375 -2.65625 1.984375 -2.875 2.40625 -2.875 C 2.78125 -2.875 3.0625 -2.65625 3.203125 -2.4375 C 3.34375 -2.234375 3.421875 -1.96875 3.421875 -1.515625 C 3.421875 -1.34375 3.421875 -0.828125 3.140625 -0.5 C 2.859375 -0.1875 2.53125 -0.125 2.328125 -0.125 C 1.765625 -0.125 1.484375 -0.5625 1.40625 -0.703125 Z M 1.40625 -2.328125 "/>
</g>
<g id="glyph-4-22">
<path d="M 2.46875 -4.75 L 2.46875 -4.5 C 2.9375 -4.5 3 -4.453125 3 -4.109375 L 3 -2.671875 C 2.734375 -2.921875 2.40625 -3.0625 2.015625 -3.0625 C 1.09375 -3.0625 0.3125 -2.375 0.3125 -1.5 C 0.3125 -0.625 1.0625 0.0625 1.9375 0.0625 C 2.515625 0.0625 2.84375 -0.234375 2.96875 -0.359375 L 2.96875 0.0625 L 4.046875 0 L 4.046875 -0.25 C 3.578125 -0.25 3.515625 -0.296875 3.515625 -0.640625 L 3.515625 -4.828125 Z M 2.96875 -0.734375 C 2.78125 -0.40625 2.4375 -0.125 1.984375 -0.125 C 1.59375 -0.125 1.3125 -0.359375 1.171875 -0.5625 C 1.03125 -0.765625 0.953125 -1.046875 0.953125 -1.484375 C 0.953125 -1.640625 0.953125 -2.171875 1.234375 -2.5 C 1.515625 -2.8125 1.859375 -2.875 2.0625 -2.875 C 2.390625 -2.875 2.6875 -2.71875 2.890625 -2.46875 C 2.96875 -2.359375 2.96875 -2.34375 2.96875 -2.21875 Z M 2.96875 -0.734375 "/>
</g>
<g id="glyph-4-23">
<path d="M 2.703125 -2.78125 C 2.578125 -2.71875 2.515625 -2.609375 2.515625 -2.46875 C 2.515625 -2.28125 2.640625 -2.140625 2.84375 -2.140625 C 3.03125 -2.140625 3.171875 -2.265625 3.171875 -2.484375 C 3.171875 -3.09375 2.203125 -3.09375 2.015625 -3.09375 C 0.96875 -3.09375 0.3125 -2.296875 0.3125 -1.5 C 0.3125 -0.625 1.0625 0.0625 1.96875 0.0625 C 3.015625 0.0625 3.25 -0.75 3.25 -0.828125 C 3.25 -0.921875 3.15625 -0.921875 3.140625 -0.921875 C 3.046875 -0.921875 3.03125 -0.890625 3 -0.796875 C 2.84375 -0.375 2.484375 -0.15625 2.0625 -0.15625 C 1.578125 -0.15625 0.953125 -0.5 0.953125 -1.515625 C 0.953125 -2.390625 1.390625 -2.875 2.03125 -2.875 C 2.125 -2.875 2.453125 -2.875 2.703125 -2.78125 Z M 2.703125 -2.78125 "/>
</g>
<g id="glyph-4-24">
<path d="M 1.40625 -0.109375 C 1.40625 0.078125 1.40625 0.671875 0.875 1.15625 C 0.84375 1.1875 0.828125 1.203125 0.828125 1.25 C 0.828125 1.28125 0.875 1.34375 0.921875 1.34375 C 1.015625 1.34375 1.609375 0.796875 1.609375 -0.046875 C 1.609375 -0.453125 1.453125 -0.796875 1.125 -0.796875 C 0.875 -0.796875 0.71875 -0.609375 0.71875 -0.390625 C 0.71875 -0.234375 0.828125 0 1.125 0 C 1.296875 0 1.40625 -0.109375 1.40625 -0.109375 Z M 1.40625 -0.109375 "/>
</g>
<g id="glyph-5-0">
<path d="M 5.796875 -3.984375 C 5.875 -4.25 5.984375 -4.484375 6.53125 -4.5 C 6.578125 -4.5 6.671875 -4.5 6.671875 -4.65625 C 6.671875 -4.6875 6.640625 -4.75 6.578125 -4.75 C 6.34375 -4.75 6.078125 -4.71875 5.84375 -4.71875 C 5.6875 -4.71875 5.28125 -4.75 5.109375 -4.75 C 5.078125 -4.75 4.96875 -4.75 4.96875 -4.59375 C 4.96875 -4.5 5.0625 -4.5 5.125 -4.5 C 5.453125 -4.484375 5.5625 -4.390625 5.5625 -4.21875 C 5.5625 -4.15625 5.5625 -4.125 5.546875 -4.046875 L 4.78125 -1.015625 L 3.015625 -4.625 C 2.96875 -4.75 2.953125 -4.75 2.78125 -4.75 L 1.828125 -4.75 C 1.703125 -4.75 1.609375 -4.75 1.609375 -4.59375 C 1.609375 -4.5 1.6875 -4.5 1.828125 -4.5 C 1.984375 -4.5 2.140625 -4.484375 2.28125 -4.46875 L 1.34375 -0.75 C 1.28125 -0.484375 1.171875 -0.265625 0.625 -0.25 C 0.578125 -0.25 0.484375 -0.25 0.484375 -0.109375 C 0.484375 -0.03125 0.53125 0 0.578125 0 C 0.8125 0 1.078125 -0.03125 1.3125 -0.03125 C 1.46875 -0.03125 1.875 0 2.046875 0 C 2.109375 0 2.1875 -0.03125 2.1875 -0.140625 C 2.1875 -0.25 2.09375 -0.25 2.015625 -0.25 C 1.578125 -0.265625 1.578125 -0.4375 1.578125 -0.546875 C 1.578125 -0.5625 1.578125 -0.609375 1.609375 -0.71875 L 2.5 -4.28125 L 4.53125 -0.125 C 4.59375 0 4.609375 0 4.6875 0 C 4.796875 0 4.796875 -0.015625 4.828125 -0.140625 Z M 5.796875 -3.984375 "/>
</g>
</g>
<clipPath id="clip-0">
<path clip-rule="nonzero" d="M 0.292969 0 L 94 0 L 94 55 L 0.292969 55 Z M 0.292969 0 "/>
</clipPath>
<clipPath id="clip-1">
<path clip-rule="nonzero" d="M 0.292969 88 L 94 88 L 94 142 L 0.292969 142 Z M 0.292969 88 "/>
</clipPath>
<clipPath id="clip-2">
<path clip-rule="nonzero" d="M 405 44 L 497.792969 44 L 497.792969 98 L 405 98 Z M 405 44 "/>
</clipPath>
<clipPath id="clip-3">
<path clip-rule="nonzero" d="M 0.292969 0 L 26 0 L 26 26 L 0.292969 26 Z M 0.292969 0 "/>
</clipPath>
<clipPath id="clip-4">
<path clip-rule="nonzero" d="M 0.292969 82 L 26 82 L 26 114 L 0.292969 114 Z M 0.292969 82 "/>
</clipPath>
</defs>
<path fill-rule="nonzero" fill="rgb(91.999817%, 91.999817%, 91.999817%)" fill-opacity="1" d="M 82.097656 10.320312 L 12.597656 10.320312 C 11.503906 10.320312 10.613281 11.210938 10.613281 12.304688 L 10.613281 42.246094 C 10.613281 43.339844 11.503906 44.230469 12.597656 44.230469 L 82.097656 44.230469 C 83.195312 44.230469 84.085938 43.339844 84.085938 42.246094 L 84.085938 12.304688 C 84.085938 11.210938 83.195312 10.320312 82.097656 10.320312 Z M 82.097656 10.320312 "/>
<g clip-path="url(#clip-0)">
<path fill="none" stroke-width="0.69739" stroke-linecap="butt" stroke-linejoin="miter" stroke="rgb(54.998779%, 54.998779%, 54.998779%)" stroke-opacity="1" stroke-miterlimit="10" d="M 34.855902 60.94471 L -34.859441 60.94471 C -35.95658 60.94471 -36.849965 60.051326 -36.849965 58.954187 L -36.849965 28.920008 C -36.849965 27.822869 -35.95658 26.929485 -34.859441 26.929485 L 34.855902 26.929485 C 35.956959 26.929485 36.850344 27.822869 36.850344 28.920008 L 36.850344 58.954187 C 36.850344 60.051326 35.956959 60.94471 34.855902 60.94471 Z M 34.855902 60.94471 " transform="matrix(0.996911, 0, 0, -0.996911, 47.34942, 71.076771)"/>
</g>
<g fill="rgb(0%, 0%, 0%)" fill-opacity="1">
<use xlink:href="#glyph-0-0" x="34.575998" y="24.561896"/>
<use xlink:href="#glyph-0-1" x="38.662774" y="24.561896"/>
<use xlink:href="#glyph-0-2" x="43.511127" y="24.561896"/>
</g>
<g fill="rgb(0%, 0%, 0%)" fill-opacity="1">
<use xlink:href="#glyph-0-0" x="48.874349" y="24.561896"/>
<use xlink:href="#glyph-0-3" x="52.961124" y="24.561896"/>
<use xlink:href="#glyph-0-4" x="56.554483" y="24.561896"/>
</g>
<g fill="rgb(0%, 0%, 0%)" fill-opacity="1">
<use xlink:href="#glyph-0-5" x="34.818248" y="35.487045"/>
<use xlink:href="#glyph-0-0" x="39.922248" y="35.487045"/>
<use xlink:href="#glyph-0-6" x="44.009023" y="35.487045"/>
<use xlink:href="#glyph-0-7" x="51.665023" y="35.487045"/>
<use xlink:href="#glyph-0-8" x="56.258623" y="35.487045"/>
</g>
<path fill-rule="nonzero" fill="rgb(91.999817%, 91.999817%, 91.999817%)" fill-opacity="1" d="M 82.097656 97.921875 L 12.597656 97.921875 C 11.503906 97.921875 10.613281 98.8125 10.613281 99.910156 L 10.613281 129.847656 C 10.613281 130.945312 11.503906 131.832031 12.597656 131.832031 L 82.097656 131.832031 C 83.195312 131.832031 84.085938 130.945312 84.085938 129.847656 L 84.085938 99.910156 C 84.085938 98.8125 83.195312 97.921875 82.097656 97.921875 Z M 82.097656 97.921875 "/>
<g clip-path="url(#clip-1)">
<path fill="none" stroke-width="0.69739" stroke-linecap="butt" stroke-linejoin="miter" stroke="rgb(54.998779%, 54.998779%, 54.998779%)" stroke-opacity="1" stroke-miterlimit="10" d="M 34.855902 -26.928282 L -34.859441 -26.928282 C -35.95658 -26.928282 -36.849965 -27.821667 -36.849965 -28.922724 L -36.849965 -58.952984 C -36.849965 -60.054041 -35.95658 -60.943507 -34.859441 -60.943507 L 34.855902 -60.943507 C 35.956959 -60.943507 36.850344 -60.054041 36.850344 -58.952984 L 36.850344 -28.922724 C 36.850344 -27.821667 35.956959 -26.928282 34.855902 -26.928282 Z M 34.855902 -26.928282 " transform="matrix(0.996911, 0, 0, -0.996911, 47.34942, 71.076771)"/>
</g>
<g fill="rgb(0%, 0%, 0%)" fill-opacity="1">
<use xlink:href="#glyph-0-9" x="23.080616" y="112.164463"/>
<use xlink:href="#glyph-0-10" x="27.674216" y="112.164463"/>
<use xlink:href="#glyph-0-4" x="32.778216" y="112.164463"/>
<use xlink:href="#glyph-0-7" x="36.351016" y="112.164463"/>
<use xlink:href="#glyph-0-11" x="40.944616" y="112.164463"/>
<use xlink:href="#glyph-0-7" x="46.048616" y="112.164463"/>
<use xlink:href="#glyph-0-6" x="50.642216" y="112.164463"/>
<use xlink:href="#glyph-0-7" x="58.298215" y="112.164463"/>
<use xlink:href="#glyph-0-10" x="62.891815" y="112.164463"/>
<use xlink:href="#glyph-0-8" x="67.995815" y="112.164463"/>
</g>
<g fill="rgb(0%, 0%, 0%)" fill-opacity="1">
<use xlink:href="#glyph-0-3" x="32.257183" y="123.089612"/>
<use xlink:href="#glyph-0-7" x="35.850542" y="123.089612"/>
<use xlink:href="#glyph-0-12" x="40.444142" y="123.089612"/>
<use xlink:href="#glyph-0-12" x="42.996142" y="123.089612"/>
<use xlink:href="#glyph-0-7" x="45.548142" y="123.089612"/>
<use xlink:href="#glyph-0-10" x="50.141742" y="123.089612"/>
<use xlink:href="#glyph-0-4" x="55.245742" y="123.089612"/>
<use xlink:href="#glyph-0-8" x="58.818541" y="123.089612"/>
</g>
<path fill-rule="nonzero" fill="rgb(100%, 88.999939%, 77.999878%)" fill-opacity="1" stroke-width="0.69739" stroke-linecap="butt" stroke-linejoin="miter" stroke="rgb(75%, 37.5%, 0%)" stroke-opacity="1" stroke-miterlimit="10" d="M 165.250865 17.008214 L 95.535522 17.008214 C 94.434465 17.008214 93.544998 16.11483 93.544998 15.013772 L 93.544998 -15.016488 C 93.544998 -16.117545 94.434465 -17.007011 95.535522 -17.007011 L 165.250865 -17.007011 C 166.351922 -17.007011 167.245307 -16.117545 167.245307 -15.016488 L 167.245307 15.013772 C 167.245307 16.11483 166.351922 17.008214 165.250865 17.008214 Z M 165.250865 17.008214 " transform="matrix(0.996911, 0, 0, -0.996911, 47.34942, 71.076771)"/>
<g fill="rgb(0%, 0%, 0%)" fill-opacity="1">
<use xlink:href="#glyph-0-13" x="154.107634" y="73.311846"/>
<use xlink:href="#glyph-0-3" x="158.190834" y="73.311846"/>
<use xlink:href="#glyph-0-14" x="161.784193" y="73.311846"/>
<use xlink:href="#glyph-0-4" x="164.336193" y="73.311846"/>
<use xlink:href="#glyph-0-14" x="167.908993" y="73.311846"/>
<use xlink:href="#glyph-0-13" x="170.460993" y="73.311846"/>
</g>
<g fill="rgb(0%, 0%, 0%)" fill-opacity="1">
<use xlink:href="#glyph-0-15" x="177.610168" y="73.311846"/>
<use xlink:href="#glyph-0-16" x="181.182968" y="73.311846"/>
<use xlink:href="#glyph-0-17" x="187.818168" y="73.311846"/>
</g>
<g fill="rgb(0%, 0%, 0%)" fill-opacity="1">
<use xlink:href="#glyph-0-18" x="192.402829" y="73.311846"/>
<use xlink:href="#glyph-0-19" x="196.996429" y="73.311846"/>
</g>
<path fill-rule="nonzero" fill="rgb(100%, 88.999939%, 77.999878%)" fill-opacity="1" stroke-width="0.69739" stroke-linecap="butt" stroke-linejoin="miter" stroke="rgb(75%, 37.5%, 0%)" stroke-opacity="1" stroke-miterlimit="10" d="M 301.315685 17.008214 L 231.600342 17.008214 C 230.499285 17.008214 229.6059 16.11483 229.6059 15.013772 L 229.6059 -15.016488 C 229.6059 -16.117545 230.499285 -17.007011 231.600342 -17.007011 L 301.315685 -17.007011 C 302.412824 -17.007011 303.306209 -16.117545 303.306209 -15.016488 L 303.306209 15.013772 C 303.306209 16.11483 302.412824 17.008214 301.315685 17.008214 Z M 301.315685 17.008214 " transform="matrix(0.996911, 0, 0, -0.996911, 47.34942, 71.076771)"/>
<g fill="rgb(0%, 0%, 0%)" fill-opacity="1">
<use xlink:href="#glyph-0-9" x="284.884428" y="67.600542"/>
<use xlink:href="#glyph-0-5" x="289.478028" y="67.600542"/>
<use xlink:href="#glyph-0-20" x="294.582028" y="67.600542"/>
</g>
<g fill="rgb(0%, 0%, 0%)" fill-opacity="1">
<use xlink:href="#glyph-0-9" x="298.920874" y="67.600542"/>
<use xlink:href="#glyph-0-11" x="303.514474" y="67.600542"/>
</g>
<g fill="rgb(0%, 0%, 0%)" fill-opacity="1">
<use xlink:href="#glyph-0-4" x="308.359252" y="67.600542"/>
<use xlink:href="#glyph-0-9" x="311.932052" y="67.600542"/>
<use xlink:href="#glyph-0-21" x="316.525652" y="67.600542"/>
<use xlink:href="#glyph-0-0" x="321.119251" y="67.600542"/>
<use xlink:href="#glyph-0-8" x="325.206027" y="67.600542"/>
</g>
<g fill="rgb(0%, 0%, 0%)" fill-opacity="1">
<use xlink:href="#glyph-1-0" x="331.895753" y="67.600542"/>
</g>
<g fill="rgb(0%, 0%, 0%)" fill-opacity="1">
<use xlink:href="#glyph-1-1" x="285.641083" y="78.525691"/>
</g>
<g fill="rgb(0%, 0%, 0%)" fill-opacity="1">
<use xlink:href="#glyph-0-12" x="295.852659" y="78.525691"/>
<use xlink:href="#glyph-0-9" x="298.404659" y="78.525691"/>
<use xlink:href="#glyph-0-22" x="302.998258" y="78.525691"/>
</g>
<g fill="rgb(0%, 0%, 0%)" fill-opacity="1">
<use xlink:href="#glyph-0-0" x="308.352542" y="78.525691"/>
<use xlink:href="#glyph-0-12" x="312.439317" y="78.525691"/>
<use xlink:href="#glyph-0-8" x="314.991317" y="78.525691"/>
</g>
<g fill="rgb(0%, 0%, 0%)" fill-opacity="1">
<use xlink:href="#glyph-0-15" x="321.681043" y="78.525691"/>
</g>
<g fill="rgb(0%, 0%, 0%)" fill-opacity="1">
<use xlink:href="#glyph-2-0" x="325.253843" y="78.525691"/>
</g>
<g fill="rgb(0%, 0%, 0%)" fill-opacity="1">
<use xlink:href="#glyph-3-0" x="330.682524" y="74.728457"/>
</g>
<g fill="rgb(0%, 0%, 0%)" fill-opacity="1">
<use xlink:href="#glyph-0-19" x="336.751719" y="78.525691"/>
</g>
<path fill-rule="nonzero" fill="rgb(89.99939%, 89.99939%, 100%)" fill-opacity="1" d="M 491.488281 54.121094 L 417.066406 54.121094 C 415.96875 54.121094 415.082031 55.011719 415.082031 56.109375 L 415.082031 86.046875 C 415.082031 87.144531 415.96875 88.03125 417.066406 88.03125 L 491.488281 88.03125 C 492.585938 88.03125 493.472656 87.144531 493.472656 86.046875 L 493.472656 56.109375 C 493.472656 55.011719 492.585938 54.121094 491.488281 54.121094 Z M 491.488281 54.121094 "/>
<g clip-path="url(#clip-2)">
<path fill="none" stroke-width="0.69739" stroke-linecap="butt" stroke-linejoin="miter" stroke="rgb(44.999695%, 44.999695%, 100%)" stroke-opacity="1" stroke-miterlimit="10" d="M 445.515007 17.008214 L 370.862539 17.008214 C 369.761482 17.008214 368.872015 16.11483 368.872015 15.013772 L 368.872015 -15.016488 C 368.872015 -16.117545 369.761482 -17.007011 370.862539 -17.007011 L 445.515007 -17.007011 C 446.616064 -17.007011 447.505531 -16.117545 447.505531 -15.016488 L 447.505531 15.013772 C 447.505531 16.11483 446.616064 17.008214 445.515007 17.008214 Z M 445.515007 17.008214 " transform="matrix(0.996911, 0, 0, -0.996911, 47.34942, 71.076771)"/>
</g>
<g fill="rgb(0%, 0%, 0%)" fill-opacity="1">
<use xlink:href="#glyph-0-23" x="421.040554" y="67.848773"/>
<use xlink:href="#glyph-0-6" x="426.144553" y="67.848773"/>
<use xlink:href="#glyph-0-7" x="433.800553" y="67.848773"/>
<use xlink:href="#glyph-0-12" x="438.394153" y="67.848773"/>
<use xlink:href="#glyph-0-24" x="440.946153" y="67.848773"/>
<use xlink:href="#glyph-0-25" x="447.835212" y="67.848773"/>
<use xlink:href="#glyph-0-26" x="453.576541" y="67.848773"/>
</g>
<g fill="rgb(0%, 0%, 0%)" fill-opacity="1">
<use xlink:href="#glyph-0-2" x="463.522637" y="67.848773"/>
</g>
<g fill="rgb(0%, 0%, 0%)" fill-opacity="1">
<use xlink:href="#glyph-0-7" x="468.885859" y="67.848773"/>
<use xlink:href="#glyph-0-12" x="473.479459" y="67.848773"/>
<use xlink:href="#glyph-0-14" x="476.031459" y="67.848773"/>
<use xlink:href="#glyph-0-13" x="478.583459" y="67.848773"/>
<use xlink:href="#glyph-0-27" x="482.666659" y="67.848773"/>
</g>
<g fill="rgb(0%, 0%, 0%)" fill-opacity="1">
<use xlink:href="#glyph-0-28" x="430.161293" y="78.773922"/>
<use xlink:href="#glyph-0-29" x="437.305105" y="78.773922"/>
<use xlink:href="#glyph-0-30" x="440.621365" y="78.773922"/>
</g>
<g fill="rgb(0%, 0%, 0%)" fill-opacity="1">
<use xlink:href="#glyph-1-1" x="446.23934" y="78.773922"/>
</g>
<g fill="rgb(0%, 0%, 0%)" fill-opacity="1">
<use xlink:href="#glyph-0-4" x="456.441976" y="78.773922"/>
<use xlink:href="#glyph-0-7" x="460.014776" y="78.773922"/>
<use xlink:href="#glyph-0-31" x="464.608376" y="78.773922"/>
</g>
<g fill="rgb(0%, 0%, 0%)" fill-opacity="1">
<use xlink:href="#glyph-0-0" x="469.206445" y="78.773922"/>
<use xlink:href="#glyph-0-11" x="473.293221" y="78.773922"/>
</g>
<path fill="none" stroke-width="0.69739" stroke-linecap="butt" stroke-linejoin="miter" stroke="rgb(0%, 0%, 0%)" stroke-opacity="1" stroke-miterlimit="10" d="M 37.199077 31.404244 L 87.718407 14.363326 " transform="matrix(0.996911, 0, 0, -0.996911, 47.34942, 71.076771)"/>
<path fill-rule="nonzero" fill="rgb(0%, 0%, 0%)" fill-opacity="1" stroke-width="0.69739" stroke-linecap="butt" stroke-linejoin="miter" stroke="rgb(0%, 0%, 0%)" stroke-opacity="1" stroke-miterlimit="10" d="M 4.340459 0.00085437 C 3.808393 0.131527 1.463707 0.878963 -0.00141665 1.691524 L -0.00162301 -1.691356 C 1.46508 -0.878147 3.80687 -0.133657 4.340459 0.00085437 Z M 4.340459 0.00085437 " transform="matrix(0.944573, 0.318643, 0.318643, -0.944573, 134.798284, 56.758376)"/>
<g fill="rgb(0%, 0%, 0%)" fill-opacity="1">
<use xlink:href="#glyph-4-0" x="114.182341" y="48.339223"/>
<use xlink:href="#glyph-4-1" x="117.28583" y="48.339223"/>
<use xlink:href="#glyph-4-2" x="120.389318" y="48.339223"/>
<use xlink:href="#glyph-4-3" x="124.348629" y="48.339223"/>
<use xlink:href="#glyph-4-4" x="126.59699" y="48.339223"/>
</g>
<path fill="none" stroke-width="0.69739" stroke-linecap="butt" stroke-linejoin="miter" stroke="rgb(0%, 0%, 0%)" stroke-opacity="1" stroke-miterlimit="10" d="M 37.199077 -31.40696 L 87.718407 -14.362123 " transform="matrix(0.996911, 0, 0, -0.996911, 47.34942, 71.076771)"/>
<path fill-rule="nonzero" fill="rgb(0%, 0%, 0%)" fill-opacity="1" stroke-width="0.69739" stroke-linecap="butt" stroke-linejoin="miter" stroke="rgb(0%, 0%, 0%)" stroke-opacity="1" stroke-miterlimit="10" d="M 4.340843 0.000285511 C 3.806002 0.131084 1.465464 0.879287 -0.00123848 1.692496 L -0.00103212 -1.690385 C 1.464092 -0.877823 3.808777 -0.130387 4.340843 0.000285511 Z M 4.340843 0.000285511 " transform="matrix(0.944573, -0.318643, -0.318643, -0.944573, 134.798284, 85.395167)"/>
<g fill="rgb(0%, 0%, 0%)" fill-opacity="1">
<use xlink:href="#glyph-4-5" x="114.182341" y="98.642361"/>
<use xlink:href="#glyph-4-4" x="118.679062" y="98.642361"/>
<use xlink:href="#glyph-4-6" x="123.065938" y="98.642361"/>
<use xlink:href="#glyph-4-7" x="126.59699" y="98.642361"/>
<use xlink:href="#glyph-4-0" x="129.272914" y="98.642361"/>
<use xlink:href="#glyph-4-8" x="132.376402" y="98.642361"/>
<use xlink:href="#glyph-4-4" x="136.763278" y="98.642361"/>
<use xlink:href="#glyph-4-6" x="141.150153" y="98.642361"/>
</g>
<path fill-rule="nonzero" fill="rgb(100%, 100%, 100%)" fill-opacity="1" d="M 15.917969 9.972656 C 15.917969 6.851562 13.386719 4.320312 10.265625 4.320312 C 7.144531 4.320312 4.613281 6.851562 4.613281 9.972656 C 4.613281 13.09375 7.144531 15.625 10.265625 15.625 C 13.386719 15.625 15.917969 13.09375 15.917969 9.972656 Z M 15.917969 9.972656 "/>
<g clip-path="url(#clip-3)">
<path fill="none" stroke-width="0.69739" stroke-linecap="butt" stroke-linejoin="miter" stroke="rgb(44.999695%, 44.999695%, 44.999695%)" stroke-opacity="1" stroke-miterlimit="10" d="M -31.528841 61.293444 C -31.528841 64.424208 -34.067934 66.963301 -37.198698 66.963301 C -40.329462 66.963301 -42.868555 64.424208 -42.868555 61.293444 C -42.868555 58.16268 -40.329462 55.623587 -37.198698 55.623587 C -34.067934 55.623587 -31.528841 58.16268 -31.528841 61.293444 Z M -31.528841 61.293444 " transform="matrix(0.996911, 0, 0, -0.996911, 47.34942, 71.076771)"/>
</g>
<g fill="rgb(0%, 0%, 0%)" fill-opacity="1">
<use xlink:href="#glyph-4-9" x="8.285459" y="12.212161"/>
</g>
<path fill-rule="nonzero" fill="rgb(100%, 100%, 100%)" fill-opacity="1" d="M 15.917969 97.574219 C 15.917969 94.453125 13.386719 91.921875 10.265625 91.921875 C 7.144531 91.921875 4.613281 94.453125 4.613281 97.574219 C 4.613281 100.695312 7.144531 103.226562 10.265625 103.226562 C 13.386719 103.226562 15.917969 100.695312 15.917969 97.574219 Z M 15.917969 97.574219 "/>
<g clip-path="url(#clip-4)">
<path fill="none" stroke-width="0.69739" stroke-linecap="butt" stroke-linejoin="miter" stroke="rgb(44.999695%, 44.999695%, 44.999695%)" stroke-opacity="1" stroke-miterlimit="10" d="M -31.528841 -26.579549 C -31.528841 -23.448784 -34.067934 -20.909691 -37.198698 -20.909691 C -40.329462 -20.909691 -42.868555 -23.448784 -42.868555 -26.579549 C -42.868555 -29.710313 -40.329462 -32.249406 -37.198698 -32.249406 C -34.067934 -32.249406 -31.528841 -29.710313 -31.528841 -26.579549 Z M -31.528841 -26.579549 " transform="matrix(0.996911, 0, 0, -0.996911, 47.34942, 71.076771)"/>
</g>
<g fill="rgb(0%, 0%, 0%)" fill-opacity="1">
<use xlink:href="#glyph-4-10" x="8.285459" y="99.815725"/>
</g>
<path fill="none" stroke-width="0.69739" stroke-linecap="butt" stroke-linejoin="miter" stroke="rgb(0%, 0%, 0%)" stroke-opacity="1" stroke-miterlimit="10" d="M 167.59404 -0.0013577 L 223.477596 -0.0013577 " transform="matrix(0.996911, 0, 0, -0.996911, 47.34942, 71.076771)"/>
<path fill-rule="nonzero" fill="rgb(0%, 0%, 0%)" fill-opacity="1" stroke-width="0.69739" stroke-linecap="butt" stroke-linejoin="miter" stroke="rgb(0%, 0%, 0%)" stroke-opacity="1" stroke-miterlimit="10" d="M 4.340111 -0.0013577 C 3.807215 0.131866 1.46404 0.876353 -0.00142428 1.691371 L -0.00142428 -1.690168 C 1.46404 -0.879069 3.807215 -0.130663 4.340111 -0.0013577 Z M 4.340111 -0.0013577 " transform="matrix(0.996911, 0, 0, -0.996911, 270.138139, 71.076771)"/>
<g fill="rgb(0%, 0%, 0%)" fill-opacity="1">
<use xlink:href="#glyph-5-0" x="226.058697" y="66.894729"/>
</g>
<g fill="rgb(0%, 0%, 0%)" fill-opacity="1">
<use xlink:href="#glyph-4-7" x="233.093688" y="66.894729"/>
<use xlink:href="#glyph-4-11" x="235.769612" y="66.894729"/>
<use xlink:href="#glyph-4-0" x="238.916204" y="66.894729"/>
<use xlink:href="#glyph-4-6" x="242.019693" y="66.894729"/>
<use xlink:href="#glyph-4-12" x="245.550745" y="66.894729"/>
</g>
<g fill="rgb(0%, 0%, 0%)" fill-opacity="1">
<use xlink:href="#glyph-4-13" x="252.61424" y="66.894729"/>
<use xlink:href="#glyph-4-14" x="258.283807" y="66.894729"/>
</g>
<g fill="rgb(0%, 0%, 0%)" fill-opacity="1">
<use xlink:href="#glyph-4-6" x="224.884336" y="78.735043"/>
<use xlink:href="#glyph-4-15" x="228.415388" y="78.735043"/>
</g>
<g fill="rgb(0%, 0%, 0%)" fill-opacity="1">
<use xlink:href="#glyph-4-6" x="232.372614" y="78.735043"/>
<use xlink:href="#glyph-4-1" x="235.903666" y="78.735043"/>
<use xlink:href="#glyph-4-16" x="239.007154" y="78.735043"/>
</g>
<g fill="rgb(0%, 0%, 0%)" fill-opacity="1">
<use xlink:href="#glyph-4-17" x="245.856519" y="78.735043"/>
<use xlink:href="#glyph-4-1" x="248.319009" y="78.735043"/>
<use xlink:href="#glyph-4-2" x="251.422498" y="78.735043"/>
<use xlink:href="#glyph-4-18" x="255.381809" y="78.735043"/>
<use xlink:href="#glyph-4-6" x="261.906504" y="78.735043"/>
</g>
<path fill="none" stroke-width="0.69739" stroke-linecap="butt" stroke-linejoin="miter" stroke="rgb(0%, 0%, 0%)" stroke-opacity="1" stroke-miterlimit="10" d="M 303.654942 -0.0013577 L 362.743711 -0.0013577 " transform="matrix(0.996911, 0, 0, -0.996911, 47.34942, 71.076771)"/>
<path fill-rule="nonzero" fill="rgb(0%, 0%, 0%)" fill-opacity="1" stroke-width="0.69739" stroke-linecap="butt" stroke-linejoin="miter" stroke="rgb(0%, 0%, 0%)" stroke-opacity="1" stroke-miterlimit="10" d="M 4.341196 -0.0013577 C 3.8083 0.131866 1.465125 0.876353 -0.000339221 1.691371 L -0.000339221 -1.690168 C 1.465125 -0.879069 3.8083 -0.130663 4.341196 -0.0013577 Z M 4.341196 -0.0013577 " transform="matrix(0.996911, 0, 0, -0.996911, 408.972994, 71.076771)"/>
<g fill="rgb(0%, 0%, 0%)" fill-opacity="1">
<use xlink:href="#glyph-4-0" x="368.488384" y="68.246541"/>
<use xlink:href="#glyph-4-1" x="371.591873" y="68.246541"/>
<use xlink:href="#glyph-4-2" x="374.695361" y="68.246541"/>
<use xlink:href="#glyph-4-3" x="378.654672" y="68.246541"/>
<use xlink:href="#glyph-4-4" x="380.903033" y="68.246541"/>
</g>
<g fill="rgb(0%, 0%, 0%)" fill-opacity="1">
<use xlink:href="#glyph-4-19" x="387.966528" y="68.246541"/>
<use xlink:href="#glyph-4-4" x="391.925839" y="68.246541"/>
</g>
<g fill="rgb(0%, 0%, 0%)" fill-opacity="1">
<use xlink:href="#glyph-4-20" x="359.980745" y="78.735043"/>
<use xlink:href="#glyph-4-2" x="362.229105" y="78.735043"/>
<use xlink:href="#glyph-4-21" x="366.188417" y="78.735043"/>
</g>
<g fill="rgb(0%, 0%, 0%)" fill-opacity="1">
<use xlink:href="#glyph-4-6" x="370.790812" y="78.735043"/>
<use xlink:href="#glyph-4-20" x="374.321864" y="78.735043"/>
<use xlink:href="#glyph-4-20" x="376.570225" y="78.735043"/>
<use xlink:href="#glyph-4-6" x="378.818585" y="78.735043"/>
<use xlink:href="#glyph-4-22" x="382.349637" y="78.735043"/>
</g>
<g fill="rgb(0%, 0%, 0%)" fill-opacity="1">
<use xlink:href="#glyph-4-22" x="389.413132" y="78.735043"/>
<use xlink:href="#glyph-4-2" x="393.800007" y="78.735043"/>
<use xlink:href="#glyph-4-0" x="397.759319" y="78.735043"/>
<use xlink:href="#glyph-4-2" x="400.862807" y="78.735043"/>
</g>
<path fill="none" stroke-width="0.69739" stroke-linecap="butt" stroke-linejoin="miter" stroke="rgb(0%, 0%, 0%)" stroke-opacity="1" stroke-miterlimit="10" d="M 408.188773 -17.355745 L 408.188773 -103.814212 L -0.00176971 -103.814212 L -0.00176971 -67.071812 " transform="matrix(0.996911, 0, 0, -0.996911, 47.34942, 71.076771)"/>
<path fill-rule="nonzero" fill="rgb(0%, 0%, 0%)" fill-opacity="1" stroke-width="0.69739" stroke-linecap="butt" stroke-linejoin="miter" stroke="rgb(0%, 0%, 0%)" stroke-opacity="1" stroke-miterlimit="10" d="M 4.341673 0.00176971 C 3.808777 0.131075 1.465602 0.879481 0.000137864 1.69058 L 0.000137864 -1.690959 C 1.465602 -0.87986 3.808777 -0.131454 4.341673 0.00176971 Z M 4.341673 0.00176971 " transform="matrix(0, -0.996911, -0.996911, 0, 47.34942, 137.941544)"/>
<g fill="rgb(0%, 0%, 0%)" fill-opacity="1">
<use xlink:href="#glyph-4-23" x="182.876495" y="170.387063"/>
<use xlink:href="#glyph-4-19" x="186.407548" y="170.387063"/>
<use xlink:href="#glyph-4-20" x="190.366859" y="170.387063"/>
<use xlink:href="#glyph-4-20" x="192.615219" y="170.387063"/>
<use xlink:href="#glyph-4-6" x="194.86358" y="170.387063"/>
<use xlink:href="#glyph-4-23" x="198.394632" y="170.387063"/>
<use xlink:href="#glyph-4-0" x="201.925684" y="170.387063"/>
<use xlink:href="#glyph-4-24" x="205.029172" y="170.387063"/>
</g>
<g fill="rgb(0%, 0%, 0%)" fill-opacity="1">
<use xlink:href="#glyph-4-17" x="209.954153" y="170.387063"/>
<use xlink:href="#glyph-4-8" x="212.416643" y="170.387063"/>
<use xlink:href="#glyph-4-20" x="216.803518" y="170.387063"/>
<use xlink:href="#glyph-4-20" x="219.051878" y="170.387063"/>
<use xlink:href="#glyph-4-16" x="221.300239" y="170.387063"/>
</g>
<g fill="rgb(0%, 0%, 0%)" fill-opacity="1">
<use xlink:href="#glyph-4-2" x="228.149604" y="170.387063"/>
<use xlink:href="#glyph-4-8" x="232.108915" y="170.387063"/>
<use xlink:href="#glyph-4-0" x="236.495791" y="170.387063"/>
<use xlink:href="#glyph-4-19" x="239.599279" y="170.387063"/>
<use xlink:href="#glyph-4-4" x="243.55859" y="170.387063"/>
<use xlink:href="#glyph-4-19" x="247.945465" y="170.387063"/>
<use xlink:href="#glyph-4-18" x="251.904777" y="170.387063"/>
<use xlink:href="#glyph-4-19" x="258.429472" y="170.387063"/>
<use xlink:href="#glyph-4-8" x="262.388783" y="170.387063"/>
<use xlink:href="#glyph-4-11" x="266.775658" y="170.387063"/>
</g>
</svg>
